<mxfile host="www.draw.io" modified="2020-02-10T00:58:34.120Z" agent="Mozilla/5.0 (X11; Ubuntu; Linux x86_64; rv:68.0) Gecko/20100101 Firefox/68.0" etag="Y2s1Slq2L2iSJ_vLbHvT" version="12.6.6" type="github">
  <diagram id="SlvpGmtmp1gVfuJW6Wji" name="Page-1">
    <mxGraphModel dx="762" dy="757" grid="1" gridSize="10" guides="1" tooltips="1" connect="1" arrows="1" fold="1" page="1" pageScale="1" pageWidth="850" pageHeight="1100" math="0" shadow="0">
      <root>
        <mxCell id="0"/>
        <mxCell id="1" parent="0"/>
        <mxCell id="M-8WFeIw9KGYcNQw-e4n-545" value="" style="ellipse;whiteSpace=wrap;html=1;dashed=1;strokeWidth=1;fillColor=none;" parent="1" vertex="1">
          <mxGeometry x="270" y="2785" width="60" height="110" as="geometry"/>
        </mxCell>
        <mxCell id="M-8WFeIw9KGYcNQw-e4n-405" value="" style="rounded=0;whiteSpace=wrap;html=1;strokeWidth=1;fillColor=none;" parent="1" vertex="1">
          <mxGeometry x="330.5" y="2540" width="140" height="140" as="geometry"/>
        </mxCell>
        <mxCell id="M-8WFeIw9KGYcNQw-e4n-390" value="" style="rounded=0;whiteSpace=wrap;html=1;strokeWidth=1;fillColor=none;" parent="1" vertex="1">
          <mxGeometry x="173.5" y="2540" width="140" height="140" as="geometry"/>
        </mxCell>
        <mxCell id="M-8WFeIw9KGYcNQw-e4n-464" value="" style="rounded=0;whiteSpace=wrap;html=1;strokeWidth=1;fillColor=none;" parent="1" vertex="1">
          <mxGeometry x="330.5" y="2350" width="140" height="140" as="geometry"/>
        </mxCell>
        <mxCell id="M-8WFeIw9KGYcNQw-e4n-300" value="" style="rounded=0;whiteSpace=wrap;html=1;strokeWidth=1;fillColor=none;" parent="1" vertex="1">
          <mxGeometry x="173" y="2350" width="140" height="140" as="geometry"/>
        </mxCell>
        <mxCell id="M-8WFeIw9KGYcNQw-e4n-270" value="" style="rounded=0;whiteSpace=wrap;html=1;strokeWidth=1;fillColor=none;" parent="1" vertex="1">
          <mxGeometry x="15" y="2350" width="140" height="140" as="geometry"/>
        </mxCell>
        <mxCell id="M-8WFeIw9KGYcNQw-e4n-20" value="" style="rounded=0;whiteSpace=wrap;html=1;" parent="1" vertex="1">
          <mxGeometry x="55" y="520" width="250" height="160" as="geometry"/>
        </mxCell>
        <mxCell id="M-8WFeIw9KGYcNQw-e4n-40" value="" style="ellipse;whiteSpace=wrap;html=1;aspect=fixed;fillColor=#e1d5e7;strokeColor=#9673a6;dashed=1;" parent="1" vertex="1">
          <mxGeometry x="220" y="515" width="90" height="90" as="geometry"/>
        </mxCell>
        <mxCell id="M-8WFeIw9KGYcNQw-e4n-39" value="" style="ellipse;whiteSpace=wrap;html=1;aspect=fixed;fillColor=#e1d5e7;strokeColor=#9673a6;dashed=1;" parent="1" vertex="1">
          <mxGeometry x="150" y="545" width="90" height="90" as="geometry"/>
        </mxCell>
        <mxCell id="M-8WFeIw9KGYcNQw-e4n-38" value="" style="ellipse;whiteSpace=wrap;html=1;aspect=fixed;fillColor=#e1d5e7;strokeColor=#9673a6;dashed=1;" parent="1" vertex="1">
          <mxGeometry x="180" y="605" width="90" height="90" as="geometry"/>
        </mxCell>
        <mxCell id="M-8WFeIw9KGYcNQw-e4n-36" value="" style="ellipse;whiteSpace=wrap;html=1;aspect=fixed;fillColor=#e1d5e7;strokeColor=#9673a6;dashed=1;" parent="1" vertex="1">
          <mxGeometry x="40" y="595" width="90" height="90" as="geometry"/>
        </mxCell>
        <mxCell id="M-8WFeIw9KGYcNQw-e4n-35" value="" style="ellipse;whiteSpace=wrap;html=1;aspect=fixed;fillColor=#e1d5e7;strokeColor=#9673a6;dashed=1;" parent="1" vertex="1">
          <mxGeometry x="87.5" y="575" width="85" height="85" as="geometry"/>
        </mxCell>
        <mxCell id="M-8WFeIw9KGYcNQw-e4n-30" value="" style="ellipse;whiteSpace=wrap;html=1;aspect=fixed;fillColor=#e1d5e7;strokeColor=#9673a6;dashed=1;" parent="1" vertex="1">
          <mxGeometry x="60" y="515" width="90" height="90" as="geometry"/>
        </mxCell>
        <mxCell id="M-8WFeIw9KGYcNQw-e4n-1" value="" style="ellipse;whiteSpace=wrap;html=1;aspect=fixed;fillColor=#dae8fc;strokeColor=#6c8ebf;" parent="1" vertex="1">
          <mxGeometry x="15" y="45" width="30" height="30" as="geometry"/>
        </mxCell>
        <mxCell id="M-8WFeIw9KGYcNQw-e4n-2" value="&lt;b&gt;Source node, alive&lt;br&gt;&lt;/b&gt;" style="text;html=1;strokeColor=none;fillColor=none;align=center;verticalAlign=middle;whiteSpace=wrap;rounded=0;" parent="1" vertex="1">
          <mxGeometry x="50" y="50" width="80" height="20" as="geometry"/>
        </mxCell>
        <mxCell id="M-8WFeIw9KGYcNQw-e4n-3" value="" style="rounded=0;whiteSpace=wrap;html=1;fillColor=#f8cecc;strokeColor=#b85450;" parent="1" vertex="1">
          <mxGeometry x="15" y="90" width="30" height="30" as="geometry"/>
        </mxCell>
        <mxCell id="M-8WFeIw9KGYcNQw-e4n-4" value="&lt;b&gt;Sink node&lt;/b&gt;" style="text;html=1;strokeColor=none;fillColor=none;align=center;verticalAlign=middle;whiteSpace=wrap;rounded=0;" parent="1" vertex="1">
          <mxGeometry x="60" y="95" width="60" height="20" as="geometry"/>
        </mxCell>
        <mxCell id="M-8WFeIw9KGYcNQw-e4n-5" value="" style="rounded=0;whiteSpace=wrap;html=1;" parent="1" vertex="1">
          <mxGeometry x="55" y="320" width="250" height="160" as="geometry"/>
        </mxCell>
        <mxCell id="M-8WFeIw9KGYcNQw-e4n-7" value="" style="ellipse;whiteSpace=wrap;html=1;aspect=fixed;fillColor=#dae8fc;strokeColor=#6c8ebf;" parent="1" vertex="1">
          <mxGeometry x="95" y="350" width="20" height="20" as="geometry"/>
        </mxCell>
        <mxCell id="M-8WFeIw9KGYcNQw-e4n-9" value="" style="ellipse;whiteSpace=wrap;html=1;aspect=fixed;fillColor=#333333;strokeColor=#666666;fontColor=#333333;" parent="1" vertex="1">
          <mxGeometry x="160" y="45" width="30" height="30" as="geometry"/>
        </mxCell>
        <mxCell id="M-8WFeIw9KGYcNQw-e4n-10" value="&lt;b&gt;Source node, dead&lt;br&gt;&lt;/b&gt;" style="text;html=1;strokeColor=none;fillColor=none;align=center;verticalAlign=middle;whiteSpace=wrap;rounded=0;" parent="1" vertex="1">
          <mxGeometry x="190" y="50" width="80" height="20" as="geometry"/>
        </mxCell>
        <mxCell id="M-8WFeIw9KGYcNQw-e4n-11" value="" style="ellipse;whiteSpace=wrap;html=1;aspect=fixed;fillColor=#dae8fc;strokeColor=#6c8ebf;" parent="1" vertex="1">
          <mxGeometry x="120" y="410" width="20" height="20" as="geometry"/>
        </mxCell>
        <mxCell id="M-8WFeIw9KGYcNQw-e4n-12" value="" style="ellipse;whiteSpace=wrap;html=1;aspect=fixed;fillColor=#dae8fc;strokeColor=#6c8ebf;" parent="1" vertex="1">
          <mxGeometry x="185" y="380" width="20" height="20" as="geometry"/>
        </mxCell>
        <mxCell id="M-8WFeIw9KGYcNQw-e4n-13" value="" style="ellipse;whiteSpace=wrap;html=1;aspect=fixed;fillColor=#dae8fc;strokeColor=#6c8ebf;" parent="1" vertex="1">
          <mxGeometry x="215" y="440" width="20" height="20" as="geometry"/>
        </mxCell>
        <mxCell id="M-8WFeIw9KGYcNQw-e4n-14" value="" style="ellipse;whiteSpace=wrap;html=1;aspect=fixed;fillColor=#dae8fc;strokeColor=#6c8ebf;" parent="1" vertex="1">
          <mxGeometry x="255" y="350" width="20" height="20" as="geometry"/>
        </mxCell>
        <mxCell id="M-8WFeIw9KGYcNQw-e4n-15" value="" style="ellipse;whiteSpace=wrap;html=1;aspect=fixed;fillColor=#dae8fc;strokeColor=#6c8ebf;" parent="1" vertex="1">
          <mxGeometry x="75" y="430" width="20" height="20" as="geometry"/>
        </mxCell>
        <mxCell id="M-8WFeIw9KGYcNQw-e4n-17" value="" style="ellipse;whiteSpace=wrap;html=1;aspect=fixed;fillColor=#333333;strokeColor=#666666;fontColor=#333333;" parent="1" vertex="1">
          <mxGeometry x="160" y="330" width="20" height="20" as="geometry"/>
        </mxCell>
        <mxCell id="M-8WFeIw9KGYcNQw-e4n-18" value="" style="ellipse;whiteSpace=wrap;html=1;aspect=fixed;fillColor=#333333;strokeColor=#666666;fontColor=#333333;" parent="1" vertex="1">
          <mxGeometry x="145" y="450" width="20" height="20" as="geometry"/>
        </mxCell>
        <mxCell id="M-8WFeIw9KGYcNQw-e4n-19" value="" style="ellipse;whiteSpace=wrap;html=1;aspect=fixed;fillColor=#333333;strokeColor=#666666;fontColor=#333333;" parent="1" vertex="1">
          <mxGeometry x="275" y="420" width="20" height="20" as="geometry"/>
        </mxCell>
        <mxCell id="M-8WFeIw9KGYcNQw-e4n-21" value="" style="ellipse;whiteSpace=wrap;html=1;aspect=fixed;fillColor=#dae8fc;strokeColor=#6c8ebf;" parent="1" vertex="1">
          <mxGeometry x="95" y="550" width="20" height="20" as="geometry"/>
        </mxCell>
        <mxCell id="M-8WFeIw9KGYcNQw-e4n-22" value="" style="ellipse;whiteSpace=wrap;html=1;aspect=fixed;fillColor=#dae8fc;strokeColor=#6c8ebf;" parent="1" vertex="1">
          <mxGeometry x="120" y="610" width="20" height="20" as="geometry"/>
        </mxCell>
        <mxCell id="M-8WFeIw9KGYcNQw-e4n-23" value="" style="ellipse;whiteSpace=wrap;html=1;aspect=fixed;fillColor=#dae8fc;strokeColor=#6c8ebf;" parent="1" vertex="1">
          <mxGeometry x="185" y="580" width="20" height="20" as="geometry"/>
        </mxCell>
        <mxCell id="M-8WFeIw9KGYcNQw-e4n-24" value="" style="ellipse;whiteSpace=wrap;html=1;aspect=fixed;fillColor=#dae8fc;strokeColor=#6c8ebf;" parent="1" vertex="1">
          <mxGeometry x="215" y="640" width="20" height="20" as="geometry"/>
        </mxCell>
        <mxCell id="M-8WFeIw9KGYcNQw-e4n-25" value="" style="ellipse;whiteSpace=wrap;html=1;aspect=fixed;fillColor=#dae8fc;strokeColor=#6c8ebf;" parent="1" vertex="1">
          <mxGeometry x="255" y="550" width="20" height="20" as="geometry"/>
        </mxCell>
        <mxCell id="M-8WFeIw9KGYcNQw-e4n-26" value="" style="ellipse;whiteSpace=wrap;html=1;aspect=fixed;fillColor=#dae8fc;strokeColor=#6c8ebf;" parent="1" vertex="1">
          <mxGeometry x="75" y="630" width="20" height="20" as="geometry"/>
        </mxCell>
        <mxCell id="M-8WFeIw9KGYcNQw-e4n-27" value="" style="ellipse;whiteSpace=wrap;html=1;aspect=fixed;fillColor=#333333;strokeColor=#666666;fontColor=#333333;" parent="1" vertex="1">
          <mxGeometry x="165" y="525" width="20" height="20" as="geometry"/>
        </mxCell>
        <mxCell id="M-8WFeIw9KGYcNQw-e4n-28" value="" style="ellipse;whiteSpace=wrap;html=1;aspect=fixed;fillColor=#333333;strokeColor=#666666;fontColor=#333333;" parent="1" vertex="1">
          <mxGeometry x="160" y="650" width="20" height="20" as="geometry"/>
        </mxCell>
        <mxCell id="M-8WFeIw9KGYcNQw-e4n-29" value="" style="ellipse;whiteSpace=wrap;html=1;aspect=fixed;fillColor=#333333;strokeColor=#666666;fontColor=#333333;" parent="1" vertex="1">
          <mxGeometry x="275" y="620" width="20" height="20" as="geometry"/>
        </mxCell>
        <mxCell id="M-8WFeIw9KGYcNQw-e4n-31" value="" style="rounded=0;whiteSpace=wrap;html=1;fillColor=#f8cecc;strokeColor=#b85450;" parent="1" vertex="1">
          <mxGeometry x="255" y="390" width="20" height="20" as="geometry"/>
        </mxCell>
        <mxCell id="M-8WFeIw9KGYcNQw-e4n-32" value="" style="rounded=0;whiteSpace=wrap;html=1;fillColor=#f8cecc;strokeColor=#b85450;" parent="1" vertex="1">
          <mxGeometry x="255" y="590" width="20" height="20" as="geometry"/>
        </mxCell>
        <mxCell id="M-8WFeIw9KGYcNQw-e4n-41" value="" style="rounded=0;whiteSpace=wrap;html=1;" parent="1" vertex="1">
          <mxGeometry x="55" y="720" width="250" height="160" as="geometry"/>
        </mxCell>
        <mxCell id="M-8WFeIw9KGYcNQw-e4n-43" value="" style="ellipse;whiteSpace=wrap;html=1;aspect=fixed;fillColor=#dae8fc;strokeColor=#6c8ebf;" parent="1" vertex="1">
          <mxGeometry x="120" y="810" width="20" height="20" as="geometry"/>
        </mxCell>
        <mxCell id="M-8WFeIw9KGYcNQw-e4n-44" value="" style="ellipse;whiteSpace=wrap;html=1;aspect=fixed;fillColor=#dae8fc;strokeColor=#6c8ebf;" parent="1" vertex="1">
          <mxGeometry x="185" y="780" width="20" height="20" as="geometry"/>
        </mxCell>
        <mxCell id="M-8WFeIw9KGYcNQw-e4n-45" value="" style="ellipse;whiteSpace=wrap;html=1;aspect=fixed;fillColor=#dae8fc;strokeColor=#6c8ebf;" parent="1" vertex="1">
          <mxGeometry x="215" y="840" width="20" height="20" as="geometry"/>
        </mxCell>
        <mxCell id="M-8WFeIw9KGYcNQw-e4n-46" value="" style="ellipse;whiteSpace=wrap;html=1;aspect=fixed;fillColor=#dae8fc;strokeColor=#6c8ebf;" parent="1" vertex="1">
          <mxGeometry x="255" y="750" width="20" height="20" as="geometry"/>
        </mxCell>
        <mxCell id="M-8WFeIw9KGYcNQw-e4n-47" value="" style="ellipse;whiteSpace=wrap;html=1;aspect=fixed;fillColor=#dae8fc;strokeColor=#6c8ebf;" parent="1" vertex="1">
          <mxGeometry x="75" y="830" width="20" height="20" as="geometry"/>
        </mxCell>
        <mxCell id="M-8WFeIw9KGYcNQw-e4n-48" value="" style="ellipse;whiteSpace=wrap;html=1;aspect=fixed;fillColor=#333333;strokeColor=#666666;fontColor=#333333;" parent="1" vertex="1">
          <mxGeometry x="160" y="730" width="20" height="20" as="geometry"/>
        </mxCell>
        <mxCell id="M-8WFeIw9KGYcNQw-e4n-49" value="" style="ellipse;whiteSpace=wrap;html=1;aspect=fixed;fillColor=#333333;strokeColor=#666666;fontColor=#333333;" parent="1" vertex="1">
          <mxGeometry x="145" y="850" width="20" height="20" as="geometry"/>
        </mxCell>
        <mxCell id="M-8WFeIw9KGYcNQw-e4n-50" value="" style="ellipse;whiteSpace=wrap;html=1;aspect=fixed;fillColor=#333333;strokeColor=#666666;fontColor=#333333;" parent="1" vertex="1">
          <mxGeometry x="275" y="820" width="20" height="20" as="geometry"/>
        </mxCell>
        <mxCell id="M-8WFeIw9KGYcNQw-e4n-51" value="" style="rounded=0;whiteSpace=wrap;html=1;fillColor=#f8cecc;strokeColor=#b85450;" parent="1" vertex="1">
          <mxGeometry x="255" y="790" width="20" height="20" as="geometry"/>
        </mxCell>
        <mxCell id="M-8WFeIw9KGYcNQw-e4n-64" value="" style="endArrow=none;html=1;exitX=0;exitY=0.5;exitDx=0;exitDy=0;entryX=0.5;entryY=0;entryDx=0;entryDy=0;" parent="1" source="M-8WFeIw9KGYcNQw-e4n-42" target="M-8WFeIw9KGYcNQw-e4n-47" edge="1">
          <mxGeometry width="50" height="50" relative="1" as="geometry">
            <mxPoint x="-15" y="850" as="sourcePoint"/>
            <mxPoint x="35" y="800" as="targetPoint"/>
          </mxGeometry>
        </mxCell>
        <mxCell id="M-8WFeIw9KGYcNQw-e4n-66" value="" style="endArrow=none;html=1;exitX=1;exitY=0.5;exitDx=0;exitDy=0;entryX=0;entryY=1;entryDx=0;entryDy=0;" parent="1" source="M-8WFeIw9KGYcNQw-e4n-47" target="M-8WFeIw9KGYcNQw-e4n-43" edge="1">
          <mxGeometry width="50" height="50" relative="1" as="geometry">
            <mxPoint x="45" y="950" as="sourcePoint"/>
            <mxPoint x="95" y="900" as="targetPoint"/>
          </mxGeometry>
        </mxCell>
        <mxCell id="M-8WFeIw9KGYcNQw-e4n-67" value="" style="endArrow=none;dashed=1;html=1;entryX=1;entryY=1;entryDx=0;entryDy=0;exitX=0;exitY=0.5;exitDx=0;exitDy=0;" parent="1" source="M-8WFeIw9KGYcNQw-e4n-49" target="M-8WFeIw9KGYcNQw-e4n-47" edge="1">
          <mxGeometry width="50" height="50" relative="1" as="geometry">
            <mxPoint x="45" y="950" as="sourcePoint"/>
            <mxPoint x="95" y="900" as="targetPoint"/>
          </mxGeometry>
        </mxCell>
        <mxCell id="M-8WFeIw9KGYcNQw-e4n-68" value="" style="endArrow=none;dashed=1;html=1;entryX=1;entryY=0;entryDx=0;entryDy=0;exitX=0.5;exitY=1;exitDx=0;exitDy=0;" parent="1" source="M-8WFeIw9KGYcNQw-e4n-48" target="M-8WFeIw9KGYcNQw-e4n-43" edge="1">
          <mxGeometry width="50" height="50" relative="1" as="geometry">
            <mxPoint x="45" y="950" as="sourcePoint"/>
            <mxPoint x="95" y="900" as="targetPoint"/>
          </mxGeometry>
        </mxCell>
        <mxCell id="M-8WFeIw9KGYcNQw-e4n-69" value="" style="endArrow=none;html=1;entryX=1;entryY=0;entryDx=0;entryDy=0;exitX=0;exitY=0;exitDx=0;exitDy=0;" parent="1" source="M-8WFeIw9KGYcNQw-e4n-43" target="M-8WFeIw9KGYcNQw-e4n-42" edge="1">
          <mxGeometry width="50" height="50" relative="1" as="geometry">
            <mxPoint x="45" y="950" as="sourcePoint"/>
            <mxPoint x="95" y="900" as="targetPoint"/>
          </mxGeometry>
        </mxCell>
        <mxCell id="M-8WFeIw9KGYcNQw-e4n-42" value="" style="ellipse;whiteSpace=wrap;html=1;aspect=fixed;fillColor=#dae8fc;strokeColor=#6c8ebf;" parent="1" vertex="1">
          <mxGeometry x="95" y="750" width="20" height="20" as="geometry"/>
        </mxCell>
        <mxCell id="M-8WFeIw9KGYcNQw-e4n-70" value="" style="endArrow=none;dashed=1;html=1;entryX=0;entryY=0.5;entryDx=0;entryDy=0;exitX=1;exitY=0.5;exitDx=0;exitDy=0;" parent="1" source="M-8WFeIw9KGYcNQw-e4n-42" target="M-8WFeIw9KGYcNQw-e4n-48" edge="1">
          <mxGeometry width="50" height="50" relative="1" as="geometry">
            <mxPoint x="45" y="950" as="sourcePoint"/>
            <mxPoint x="95" y="900" as="targetPoint"/>
          </mxGeometry>
        </mxCell>
        <mxCell id="M-8WFeIw9KGYcNQw-e4n-71" value="" style="endArrow=none;dashed=1;html=1;entryX=1;entryY=0.5;entryDx=0;entryDy=0;exitX=0;exitY=0.5;exitDx=0;exitDy=0;" parent="1" source="M-8WFeIw9KGYcNQw-e4n-45" target="M-8WFeIw9KGYcNQw-e4n-49" edge="1">
          <mxGeometry width="50" height="50" relative="1" as="geometry">
            <mxPoint x="45" y="950" as="sourcePoint"/>
            <mxPoint x="95" y="900" as="targetPoint"/>
          </mxGeometry>
        </mxCell>
        <mxCell id="M-8WFeIw9KGYcNQw-e4n-72" value="" style="endArrow=none;dashed=1;html=1;entryX=1;entryY=1;entryDx=0;entryDy=0;exitX=0.5;exitY=0;exitDx=0;exitDy=0;" parent="1" source="M-8WFeIw9KGYcNQw-e4n-44" target="M-8WFeIw9KGYcNQw-e4n-48" edge="1">
          <mxGeometry width="50" height="50" relative="1" as="geometry">
            <mxPoint x="45" y="950" as="sourcePoint"/>
            <mxPoint x="95" y="900" as="targetPoint"/>
          </mxGeometry>
        </mxCell>
        <mxCell id="M-8WFeIw9KGYcNQw-e4n-73" value="" style="endArrow=none;html=1;entryX=1;entryY=1;entryDx=0;entryDy=0;exitX=0;exitY=0.5;exitDx=0;exitDy=0;" parent="1" source="M-8WFeIw9KGYcNQw-e4n-51" target="M-8WFeIw9KGYcNQw-e4n-44" edge="1">
          <mxGeometry width="50" height="50" relative="1" as="geometry">
            <mxPoint x="45" y="950" as="sourcePoint"/>
            <mxPoint x="95" y="900" as="targetPoint"/>
          </mxGeometry>
        </mxCell>
        <mxCell id="M-8WFeIw9KGYcNQw-e4n-74" value="" style="endArrow=none;html=1;entryX=0;entryY=0.5;entryDx=0;entryDy=0;exitX=1;exitY=0;exitDx=0;exitDy=0;" parent="1" source="M-8WFeIw9KGYcNQw-e4n-44" target="M-8WFeIw9KGYcNQw-e4n-46" edge="1">
          <mxGeometry width="50" height="50" relative="1" as="geometry">
            <mxPoint x="45" y="950" as="sourcePoint"/>
            <mxPoint x="95" y="900" as="targetPoint"/>
          </mxGeometry>
        </mxCell>
        <mxCell id="M-8WFeIw9KGYcNQw-e4n-75" value="" style="endArrow=none;dashed=1;html=1;entryX=0.5;entryY=1;entryDx=0;entryDy=0;exitX=0.5;exitY=0;exitDx=0;exitDy=0;" parent="1" source="M-8WFeIw9KGYcNQw-e4n-51" target="M-8WFeIw9KGYcNQw-e4n-46" edge="1">
          <mxGeometry width="50" height="50" relative="1" as="geometry">
            <mxPoint x="45" y="950" as="sourcePoint"/>
            <mxPoint x="95" y="900" as="targetPoint"/>
          </mxGeometry>
        </mxCell>
        <mxCell id="M-8WFeIw9KGYcNQw-e4n-76" value="" style="endArrow=none;html=1;entryX=1;entryY=0;entryDx=0;entryDy=0;exitX=0.5;exitY=1;exitDx=0;exitDy=0;" parent="1" source="M-8WFeIw9KGYcNQw-e4n-51" target="M-8WFeIw9KGYcNQw-e4n-45" edge="1">
          <mxGeometry width="50" height="50" relative="1" as="geometry">
            <mxPoint x="45" y="950" as="sourcePoint"/>
            <mxPoint x="95" y="900" as="targetPoint"/>
          </mxGeometry>
        </mxCell>
        <mxCell id="M-8WFeIw9KGYcNQw-e4n-77" value="" style="endArrow=none;dashed=1;html=1;entryX=1;entryY=0.5;entryDx=0;entryDy=0;exitX=0;exitY=1;exitDx=0;exitDy=0;" parent="1" source="M-8WFeIw9KGYcNQw-e4n-50" target="M-8WFeIw9KGYcNQw-e4n-45" edge="1">
          <mxGeometry width="50" height="50" relative="1" as="geometry">
            <mxPoint x="45" y="950" as="sourcePoint"/>
            <mxPoint x="95" y="900" as="targetPoint"/>
          </mxGeometry>
        </mxCell>
        <mxCell id="M-8WFeIw9KGYcNQw-e4n-78" value="" style="endArrow=none;dashed=1;html=1;entryX=0.5;entryY=0;entryDx=0;entryDy=0;exitX=1;exitY=0.5;exitDx=0;exitDy=0;" parent="1" source="M-8WFeIw9KGYcNQw-e4n-51" target="M-8WFeIw9KGYcNQw-e4n-50" edge="1">
          <mxGeometry width="50" height="50" relative="1" as="geometry">
            <mxPoint x="45" y="950" as="sourcePoint"/>
            <mxPoint x="95" y="900" as="targetPoint"/>
          </mxGeometry>
        </mxCell>
        <mxCell id="M-8WFeIw9KGYcNQw-e4n-79" value="" style="endArrow=none;html=1;" parent="1" edge="1">
          <mxGeometry width="50" height="50" relative="1" as="geometry">
            <mxPoint x="17.5" y="165" as="sourcePoint"/>
            <mxPoint x="42.5" y="135" as="targetPoint"/>
          </mxGeometry>
        </mxCell>
        <mxCell id="M-8WFeIw9KGYcNQw-e4n-80" value="Wireless connection, alive" style="text;html=1;strokeColor=none;fillColor=none;align=center;verticalAlign=middle;whiteSpace=wrap;rounded=0;fontStyle=1" parent="1" vertex="1">
          <mxGeometry x="55" y="135" width="60" height="20" as="geometry"/>
        </mxCell>
        <mxCell id="M-8WFeIw9KGYcNQw-e4n-81" value="" style="endArrow=none;dashed=1;html=1;" parent="1" edge="1">
          <mxGeometry width="50" height="50" relative="1" as="geometry">
            <mxPoint x="160" y="165" as="sourcePoint"/>
            <mxPoint x="185" y="135" as="targetPoint"/>
          </mxGeometry>
        </mxCell>
        <mxCell id="M-8WFeIw9KGYcNQw-e4n-82" value="Wireless connection, dead" style="text;html=1;strokeColor=none;fillColor=none;align=center;verticalAlign=middle;whiteSpace=wrap;rounded=0;fontStyle=1" parent="1" vertex="1">
          <mxGeometry x="207.5" y="135" width="60" height="20" as="geometry"/>
        </mxCell>
        <mxCell id="M-8WFeIw9KGYcNQw-e4n-83" value="" style="ellipse;whiteSpace=wrap;html=1;aspect=fixed;dashed=1;fillColor=#e1d5e7;strokeColor=#9673a6;" parent="1" vertex="1">
          <mxGeometry x="305" y="40" width="50" height="50" as="geometry"/>
        </mxCell>
        <mxCell id="M-8WFeIw9KGYcNQw-e4n-84" value="" style="ellipse;whiteSpace=wrap;html=1;aspect=fixed;fillColor=#dae8fc;strokeColor=#6c8ebf;" parent="1" vertex="1">
          <mxGeometry x="320" y="55" width="20" height="20" as="geometry"/>
        </mxCell>
        <mxCell id="M-8WFeIw9KGYcNQw-e4n-85" value="&lt;b&gt;Source node &amp;amp; coverage&lt;br&gt;&lt;/b&gt;" style="text;html=1;strokeColor=none;fillColor=none;align=center;verticalAlign=middle;whiteSpace=wrap;rounded=0;" parent="1" vertex="1">
          <mxGeometry x="355" y="50" width="80" height="20" as="geometry"/>
        </mxCell>
        <mxCell id="M-8WFeIw9KGYcNQw-e4n-86" value="" style="rounded=0;whiteSpace=wrap;html=1;" parent="1" vertex="1">
          <mxGeometry x="52.5" y="960" width="162.5" height="120" as="geometry"/>
        </mxCell>
        <mxCell id="M-8WFeIw9KGYcNQw-e4n-90" style="edgeStyle=orthogonalEdgeStyle;curved=1;orthogonalLoop=1;jettySize=auto;html=1;exitX=0.5;exitY=1;exitDx=0;exitDy=0;entryX=0;entryY=0.5;entryDx=0;entryDy=0;endArrow=classic;endFill=1;" parent="1" source="M-8WFeIw9KGYcNQw-e4n-87" target="M-8WFeIw9KGYcNQw-e4n-89" edge="1">
          <mxGeometry relative="1" as="geometry"/>
        </mxCell>
        <mxCell id="M-8WFeIw9KGYcNQw-e4n-87" value="" style="ellipse;whiteSpace=wrap;html=1;aspect=fixed;fillColor=#dae8fc;strokeColor=#6c8ebf;" parent="1" vertex="1">
          <mxGeometry x="87.5" y="1000" width="20" height="20" as="geometry"/>
        </mxCell>
        <mxCell id="M-8WFeIw9KGYcNQw-e4n-91" style="edgeStyle=orthogonalEdgeStyle;curved=1;orthogonalLoop=1;jettySize=auto;html=1;exitX=1;exitY=1;exitDx=0;exitDy=0;entryX=0.5;entryY=0;entryDx=0;entryDy=0;endArrow=classic;endFill=1;" parent="1" source="M-8WFeIw9KGYcNQw-e4n-88" target="M-8WFeIw9KGYcNQw-e4n-89" edge="1">
          <mxGeometry relative="1" as="geometry"/>
        </mxCell>
        <mxCell id="M-8WFeIw9KGYcNQw-e4n-88" value="" style="ellipse;whiteSpace=wrap;html=1;aspect=fixed;fillColor=#dae8fc;strokeColor=#6c8ebf;" parent="1" vertex="1">
          <mxGeometry x="152.5" y="980" width="20" height="20" as="geometry"/>
        </mxCell>
        <mxCell id="M-8WFeIw9KGYcNQw-e4n-89" value="" style="rounded=0;whiteSpace=wrap;html=1;fillColor=#f8cecc;strokeColor=#b85450;" parent="1" vertex="1">
          <mxGeometry x="140" y="1040" width="20" height="20" as="geometry"/>
        </mxCell>
        <mxCell id="M-8WFeIw9KGYcNQw-e4n-92" value="packet A" style="text;html=1;strokeColor=none;fillColor=none;align=center;verticalAlign=middle;whiteSpace=wrap;rounded=0;" parent="1" vertex="1">
          <mxGeometry x="80" y="1050" width="40" height="20" as="geometry"/>
        </mxCell>
        <mxCell id="M-8WFeIw9KGYcNQw-e4n-93" value="packet B" style="text;html=1;strokeColor=none;fillColor=none;align=center;verticalAlign=middle;whiteSpace=wrap;rounded=0;" parent="1" vertex="1">
          <mxGeometry x="165" y="1020" width="40" height="20" as="geometry"/>
        </mxCell>
        <mxCell id="M-8WFeIw9KGYcNQw-e4n-94" value="" style="rounded=0;whiteSpace=wrap;html=1;" parent="1" vertex="1">
          <mxGeometry x="257.5" y="960" width="162.5" height="120" as="geometry"/>
        </mxCell>
        <mxCell id="M-8WFeIw9KGYcNQw-e4n-95" style="edgeStyle=orthogonalEdgeStyle;curved=1;orthogonalLoop=1;jettySize=auto;html=1;exitX=0.5;exitY=1;exitDx=0;exitDy=0;entryX=0;entryY=0.5;entryDx=0;entryDy=0;endArrow=classic;endFill=1;" parent="1" source="M-8WFeIw9KGYcNQw-e4n-96" target="M-8WFeIw9KGYcNQw-e4n-99" edge="1">
          <mxGeometry relative="1" as="geometry"/>
        </mxCell>
        <mxCell id="M-8WFeIw9KGYcNQw-e4n-102" style="edgeStyle=orthogonalEdgeStyle;curved=1;orthogonalLoop=1;jettySize=auto;html=1;exitX=0.5;exitY=0;exitDx=0;exitDy=0;entryX=0;entryY=0.5;entryDx=0;entryDy=0;endArrow=classic;endFill=1;" parent="1" source="M-8WFeIw9KGYcNQw-e4n-96" target="M-8WFeIw9KGYcNQw-e4n-98" edge="1">
          <mxGeometry relative="1" as="geometry"/>
        </mxCell>
        <mxCell id="M-8WFeIw9KGYcNQw-e4n-96" value="" style="ellipse;whiteSpace=wrap;html=1;aspect=fixed;fillColor=#dae8fc;strokeColor=#6c8ebf;" parent="1" vertex="1">
          <mxGeometry x="292.5" y="1000" width="20" height="20" as="geometry"/>
        </mxCell>
        <mxCell id="M-8WFeIw9KGYcNQw-e4n-98" value="" style="ellipse;whiteSpace=wrap;html=1;aspect=fixed;fillColor=#dae8fc;strokeColor=#6c8ebf;" parent="1" vertex="1">
          <mxGeometry x="380" y="970" width="20" height="20" as="geometry"/>
        </mxCell>
        <mxCell id="M-8WFeIw9KGYcNQw-e4n-99" value="" style="rounded=0;whiteSpace=wrap;html=1;fillColor=#f8cecc;strokeColor=#b85450;" parent="1" vertex="1">
          <mxGeometry x="345" y="1040" width="20" height="20" as="geometry"/>
        </mxCell>
        <mxCell id="M-8WFeIw9KGYcNQw-e4n-100" value="msg for sink" style="text;html=1;strokeColor=none;fillColor=none;align=center;verticalAlign=middle;whiteSpace=wrap;rounded=0;" parent="1" vertex="1">
          <mxGeometry x="270" y="1050" width="50" height="20" as="geometry"/>
        </mxCell>
        <mxCell id="M-8WFeIw9KGYcNQw-e4n-103" value="msg for sink" style="text;html=1;strokeColor=none;fillColor=none;align=center;verticalAlign=middle;whiteSpace=wrap;rounded=0;" parent="1" vertex="1">
          <mxGeometry x="330" y="990" width="50" height="20" as="geometry"/>
        </mxCell>
        <mxCell id="M-8WFeIw9KGYcNQw-e4n-105" value="" style="rounded=0;whiteSpace=wrap;html=1;" parent="1" vertex="1">
          <mxGeometry x="52.5" y="1130" width="162.5" height="120" as="geometry"/>
        </mxCell>
        <mxCell id="M-8WFeIw9KGYcNQw-e4n-108" value="" style="ellipse;whiteSpace=wrap;html=1;aspect=fixed;fillColor=#dae8fc;strokeColor=#6c8ebf;" parent="1" vertex="1">
          <mxGeometry x="75" y="1150" width="20" height="20" as="geometry"/>
        </mxCell>
        <mxCell id="M-8WFeIw9KGYcNQw-e4n-109" value="" style="ellipse;whiteSpace=wrap;html=1;aspect=fixed;fillColor=#dae8fc;strokeColor=#6c8ebf;" parent="1" vertex="1">
          <mxGeometry x="125" y="1170" width="20" height="20" as="geometry"/>
        </mxCell>
        <mxCell id="M-8WFeIw9KGYcNQw-e4n-115" style="edgeStyle=orthogonalEdgeStyle;curved=1;orthogonalLoop=1;jettySize=auto;html=1;exitX=0.5;exitY=0;exitDx=0;exitDy=0;entryX=0.5;entryY=1;entryDx=0;entryDy=0;endArrow=classic;endFill=1;" parent="1" source="M-8WFeIw9KGYcNQw-e4n-110" target="M-8WFeIw9KGYcNQw-e4n-108" edge="1">
          <mxGeometry relative="1" as="geometry"/>
        </mxCell>
        <mxCell id="M-8WFeIw9KGYcNQw-e4n-110" value="" style="rounded=0;whiteSpace=wrap;html=1;fillColor=#f8cecc;strokeColor=#b85450;" parent="1" vertex="1">
          <mxGeometry x="75" y="1220" width="20" height="20" as="geometry"/>
        </mxCell>
        <mxCell id="M-8WFeIw9KGYcNQw-e4n-114" value="" style="ellipse;whiteSpace=wrap;html=1;aspect=fixed;fillColor=#dae8fc;strokeColor=#6c8ebf;" parent="1" vertex="1">
          <mxGeometry x="185" y="1140" width="20" height="20" as="geometry"/>
        </mxCell>
        <mxCell id="M-8WFeIw9KGYcNQw-e4n-117" value="" style="endArrow=classic;html=1;exitX=1;exitY=0.25;exitDx=0;exitDy=0;entryX=0;entryY=1;entryDx=0;entryDy=0;" parent="1" source="M-8WFeIw9KGYcNQw-e4n-110" target="M-8WFeIw9KGYcNQw-e4n-109" edge="1">
          <mxGeometry width="50" height="50" relative="1" as="geometry">
            <mxPoint x="45" y="1320" as="sourcePoint"/>
            <mxPoint x="95" y="1270" as="targetPoint"/>
          </mxGeometry>
        </mxCell>
        <mxCell id="M-8WFeIw9KGYcNQw-e4n-118" value="" style="endArrow=classic;html=1;exitX=1;exitY=0;exitDx=0;exitDy=0;entryX=0;entryY=1;entryDx=0;entryDy=0;" parent="1" source="M-8WFeIw9KGYcNQw-e4n-109" target="M-8WFeIw9KGYcNQw-e4n-114" edge="1">
          <mxGeometry width="50" height="50" relative="1" as="geometry">
            <mxPoint x="45" y="1320" as="sourcePoint"/>
            <mxPoint x="95" y="1270" as="targetPoint"/>
          </mxGeometry>
        </mxCell>
        <mxCell id="M-8WFeIw9KGYcNQw-e4n-119" value="" style="endArrow=classic;html=1;exitX=1;exitY=0;exitDx=0;exitDy=0;entryX=0;entryY=0.5;entryDx=0;entryDy=0;" parent="1" source="M-8WFeIw9KGYcNQw-e4n-108" target="M-8WFeIw9KGYcNQw-e4n-114" edge="1">
          <mxGeometry width="50" height="50" relative="1" as="geometry">
            <mxPoint x="45" y="1320" as="sourcePoint"/>
            <mxPoint x="95" y="1270" as="targetPoint"/>
          </mxGeometry>
        </mxCell>
        <mxCell id="M-8WFeIw9KGYcNQw-e4n-121" value="ping" style="text;html=1;strokeColor=none;fillColor=none;align=center;verticalAlign=middle;whiteSpace=wrap;rounded=0;" parent="1" vertex="1">
          <mxGeometry x="105" y="1200" width="40" height="20" as="geometry"/>
        </mxCell>
        <mxCell id="M-8WFeIw9KGYcNQw-e4n-122" value="ping" style="text;html=1;strokeColor=none;fillColor=none;align=center;verticalAlign=middle;whiteSpace=wrap;rounded=0;" parent="1" vertex="1">
          <mxGeometry x="155" y="1160" width="40" height="20" as="geometry"/>
        </mxCell>
        <mxCell id="M-8WFeIw9KGYcNQw-e4n-123" value="ping" style="text;html=1;strokeColor=none;fillColor=none;align=center;verticalAlign=middle;whiteSpace=wrap;rounded=0;" parent="1" vertex="1">
          <mxGeometry x="107.5" y="1130" width="40" height="20" as="geometry"/>
        </mxCell>
        <mxCell id="M-8WFeIw9KGYcNQw-e4n-124" value="ping" style="text;html=1;strokeColor=none;fillColor=none;align=center;verticalAlign=middle;whiteSpace=wrap;rounded=0;" parent="1" vertex="1">
          <mxGeometry x="80" y="1180" width="40" height="20" as="geometry"/>
        </mxCell>
        <mxCell id="M-8WFeIw9KGYcNQw-e4n-125" value="" style="rounded=0;whiteSpace=wrap;html=1;" parent="1" vertex="1">
          <mxGeometry x="257.5" y="1130" width="162.5" height="120" as="geometry"/>
        </mxCell>
        <mxCell id="M-8WFeIw9KGYcNQw-e4n-127" value="" style="ellipse;whiteSpace=wrap;html=1;aspect=fixed;fillColor=#dae8fc;strokeColor=#6c8ebf;" parent="1" vertex="1">
          <mxGeometry x="330" y="1180" width="20" height="20" as="geometry"/>
        </mxCell>
        <mxCell id="M-8WFeIw9KGYcNQw-e4n-138" value="" style="rounded=0;whiteSpace=wrap;html=1;" parent="1" vertex="1">
          <mxGeometry x="48.75" y="1280" width="162.5" height="120" as="geometry"/>
        </mxCell>
        <mxCell id="M-8WFeIw9KGYcNQw-e4n-139" value="" style="ellipse;whiteSpace=wrap;html=1;aspect=fixed;fillColor=#dae8fc;strokeColor=#6c8ebf;" parent="1" vertex="1">
          <mxGeometry x="67.5" y="1330" width="20" height="20" as="geometry"/>
        </mxCell>
        <mxCell id="M-8WFeIw9KGYcNQw-e4n-140" value="" style="ellipse;whiteSpace=wrap;html=1;aspect=fixed;fillColor=#dae8fc;strokeColor=#6c8ebf;" parent="1" vertex="1">
          <mxGeometry x="180" y="1330" width="20" height="20" as="geometry"/>
        </mxCell>
        <mxCell id="M-8WFeIw9KGYcNQw-e4n-141" value="" style="verticalLabelPosition=bottom;verticalAlign=top;html=1;shape=mxgraph.basic.flash;fillColor=#fff2cc;strokeColor=#d6b656;" parent="1" vertex="1">
          <mxGeometry x="123.75" y="1305" width="20" height="70" as="geometry"/>
        </mxCell>
        <mxCell id="M-8WFeIw9KGYcNQw-e4n-143" value="" style="endArrow=classic;html=1;exitX=0.213;exitY=0.6;exitDx=0;exitDy=0;exitPerimeter=0;entryX=1;entryY=0.5;entryDx=0;entryDy=0;" parent="1" source="M-8WFeIw9KGYcNQw-e4n-141" target="M-8WFeIw9KGYcNQw-e4n-139" edge="1">
          <mxGeometry width="50" height="50" relative="1" as="geometry">
            <mxPoint x="45" y="1470" as="sourcePoint"/>
            <mxPoint x="95" y="1420" as="targetPoint"/>
          </mxGeometry>
        </mxCell>
        <mxCell id="M-8WFeIw9KGYcNQw-e4n-144" value="" style="endArrow=classic;html=1;exitX=0;exitY=0.5;exitDx=0;exitDy=0;" parent="1" source="M-8WFeIw9KGYcNQw-e4n-140" edge="1">
          <mxGeometry width="50" height="50" relative="1" as="geometry">
            <mxPoint x="45" y="1470" as="sourcePoint"/>
            <mxPoint x="134" y="1344" as="targetPoint"/>
          </mxGeometry>
        </mxCell>
        <mxCell id="M-8WFeIw9KGYcNQw-e4n-145" value="valid msg" style="text;html=1;strokeColor=none;fillColor=none;align=center;verticalAlign=middle;whiteSpace=wrap;rounded=0;" parent="1" vertex="1">
          <mxGeometry x="150" y="1350" width="40" height="20" as="geometry"/>
        </mxCell>
        <mxCell id="M-8WFeIw9KGYcNQw-e4n-146" value="????" style="text;html=1;strokeColor=none;fillColor=none;align=center;verticalAlign=middle;whiteSpace=wrap;rounded=0;" parent="1" vertex="1">
          <mxGeometry x="83.75" y="1350" width="40" height="20" as="geometry"/>
        </mxCell>
        <mxCell id="M-8WFeIw9KGYcNQw-e4n-147" value="" style="rounded=0;whiteSpace=wrap;html=1;" parent="1" vertex="1">
          <mxGeometry x="65" y="1460" width="350" height="270" as="geometry"/>
        </mxCell>
        <mxCell id="M-8WFeIw9KGYcNQw-e4n-148" value="" style="ellipse;whiteSpace=wrap;html=1;aspect=fixed;fillColor=#dae8fc;strokeColor=#6c8ebf;" parent="1" vertex="1">
          <mxGeometry x="195" y="1480" width="20" height="20" as="geometry"/>
        </mxCell>
        <mxCell id="M-8WFeIw9KGYcNQw-e4n-193" style="edgeStyle=orthogonalEdgeStyle;curved=1;orthogonalLoop=1;jettySize=auto;html=1;exitX=0;exitY=0.5;exitDx=0;exitDy=0;entryX=1;entryY=0.5;entryDx=0;entryDy=0;endArrow=classic;endFill=1;" parent="1" source="M-8WFeIw9KGYcNQw-e4n-149" target="M-8WFeIw9KGYcNQw-e4n-156" edge="1">
          <mxGeometry relative="1" as="geometry"/>
        </mxCell>
        <mxCell id="M-8WFeIw9KGYcNQw-e4n-149" value="" style="ellipse;whiteSpace=wrap;html=1;aspect=fixed;fillColor=#dae8fc;strokeColor=#6c8ebf;" parent="1" vertex="1">
          <mxGeometry x="124.5" y="1520" width="20" height="20" as="geometry"/>
        </mxCell>
        <mxCell id="M-8WFeIw9KGYcNQw-e4n-151" value="" style="ellipse;whiteSpace=wrap;html=1;aspect=fixed;fillColor=#dae8fc;strokeColor=#6c8ebf;" parent="1" vertex="1">
          <mxGeometry x="222" y="1513" width="20" height="20" as="geometry"/>
        </mxCell>
        <mxCell id="M-8WFeIw9KGYcNQw-e4n-152" value="" style="ellipse;whiteSpace=wrap;html=1;aspect=fixed;fillColor=#dae8fc;strokeColor=#6c8ebf;" parent="1" vertex="1">
          <mxGeometry x="222" y="1470" width="20" height="20" as="geometry"/>
        </mxCell>
        <mxCell id="M-8WFeIw9KGYcNQw-e4n-153" value="" style="ellipse;whiteSpace=wrap;html=1;aspect=fixed;fillColor=#dae8fc;strokeColor=#6c8ebf;" parent="1" vertex="1">
          <mxGeometry x="327.5" y="1500" width="20" height="20" as="geometry"/>
        </mxCell>
        <mxCell id="M-8WFeIw9KGYcNQw-e4n-156" value="" style="rounded=0;whiteSpace=wrap;html=1;fillColor=#f8cecc;strokeColor=#b85450;" parent="1" vertex="1">
          <mxGeometry x="75" y="1520" width="20" height="20" as="geometry"/>
        </mxCell>
        <mxCell id="M-8WFeIw9KGYcNQw-e4n-162" value="" style="ellipse;whiteSpace=wrap;html=1;aspect=fixed;fillColor=#dae8fc;strokeColor=#6c8ebf;" parent="1" vertex="1">
          <mxGeometry x="173" y="1510" width="20" height="20" as="geometry"/>
        </mxCell>
        <mxCell id="M-8WFeIw9KGYcNQw-e4n-172" value="" style="ellipse;whiteSpace=wrap;html=1;aspect=fixed;fillColor=#dae8fc;strokeColor=#6c8ebf;" parent="1" vertex="1">
          <mxGeometry x="117.5" y="1480" width="20" height="20" as="geometry"/>
        </mxCell>
        <mxCell id="M-8WFeIw9KGYcNQw-e4n-179" value="E" style="ellipse;whiteSpace=wrap;html=1;aspect=fixed;fillColor=#dae8fc;strokeColor=#6c8ebf;" parent="1" vertex="1">
          <mxGeometry x="365" y="1660" width="20" height="20" as="geometry"/>
        </mxCell>
        <mxCell id="M-8WFeIw9KGYcNQw-e4n-180" value="C" style="ellipse;whiteSpace=wrap;html=1;aspect=fixed;fillColor=#dae8fc;strokeColor=#6c8ebf;" parent="1" vertex="1">
          <mxGeometry x="320" y="1670" width="20" height="20" as="geometry"/>
        </mxCell>
        <mxCell id="M-8WFeIw9KGYcNQw-e4n-181" value="" style="ellipse;whiteSpace=wrap;html=1;aspect=fixed;fillColor=#dae8fc;strokeColor=#6c8ebf;" parent="1" vertex="1">
          <mxGeometry x="257.5" y="1620" width="20" height="20" as="geometry"/>
        </mxCell>
        <mxCell id="M-8WFeIw9KGYcNQw-e4n-182" value="D" style="ellipse;whiteSpace=wrap;html=1;aspect=fixed;fillColor=#dae8fc;strokeColor=#6c8ebf;" parent="1" vertex="1">
          <mxGeometry x="360" y="1610" width="20" height="20" as="geometry"/>
        </mxCell>
        <mxCell id="M-8WFeIw9KGYcNQw-e4n-184" value="B" style="ellipse;whiteSpace=wrap;html=1;aspect=fixed;fillColor=#dae8fc;strokeColor=#6c8ebf;" parent="1" vertex="1">
          <mxGeometry x="305" y="1630" width="20" height="20" as="geometry"/>
        </mxCell>
        <mxCell id="M-8WFeIw9KGYcNQw-e4n-185" value="" style="ellipse;whiteSpace=wrap;html=1;aspect=fixed;fillColor=#dae8fc;strokeColor=#6c8ebf;" parent="1" vertex="1">
          <mxGeometry x="263" y="1519" width="20" height="20" as="geometry"/>
        </mxCell>
        <mxCell id="M-8WFeIw9KGYcNQw-e4n-186" value="" style="ellipse;whiteSpace=wrap;html=1;aspect=fixed;fillColor=#dae8fc;strokeColor=#6c8ebf;" parent="1" vertex="1">
          <mxGeometry x="100.63" y="1610" width="20" height="20" as="geometry"/>
        </mxCell>
        <mxCell id="M-8WFeIw9KGYcNQw-e4n-187" value="" style="ellipse;whiteSpace=wrap;html=1;aspect=fixed;fillColor=#dae8fc;strokeColor=#6c8ebf;" parent="1" vertex="1">
          <mxGeometry x="170" y="1650" width="20" height="20" as="geometry"/>
        </mxCell>
        <mxCell id="M-8WFeIw9KGYcNQw-e4n-188" value="" style="ellipse;whiteSpace=wrap;html=1;aspect=fixed;fillColor=#dae8fc;strokeColor=#6c8ebf;" parent="1" vertex="1">
          <mxGeometry x="146.88" y="1610" width="20" height="20" as="geometry"/>
        </mxCell>
        <mxCell id="M-8WFeIw9KGYcNQw-e4n-190" value="" style="ellipse;whiteSpace=wrap;html=1;aspect=fixed;fillColor=#dae8fc;strokeColor=#6c8ebf;" parent="1" vertex="1">
          <mxGeometry x="310" y="1550" width="20" height="20" as="geometry"/>
        </mxCell>
        <mxCell id="M-8WFeIw9KGYcNQw-e4n-191" value="" style="ellipse;whiteSpace=wrap;html=1;aspect=fixed;fillColor=#dae8fc;strokeColor=#6c8ebf;" parent="1" vertex="1">
          <mxGeometry x="242" y="1670" width="20" height="20" as="geometry"/>
        </mxCell>
        <mxCell id="M-8WFeIw9KGYcNQw-e4n-192" value="A" style="ellipse;whiteSpace=wrap;html=1;aspect=fixed;fillColor=#dae8fc;strokeColor=#6c8ebf;" parent="1" vertex="1">
          <mxGeometry x="250" y="1560" width="20" height="20" as="geometry"/>
        </mxCell>
        <mxCell id="M-8WFeIw9KGYcNQw-e4n-195" value="" style="endArrow=classic;html=1;exitX=0;exitY=0.5;exitDx=0;exitDy=0;entryX=1;entryY=0.5;entryDx=0;entryDy=0;" parent="1" source="M-8WFeIw9KGYcNQw-e4n-162" target="M-8WFeIw9KGYcNQw-e4n-149" edge="1">
          <mxGeometry width="50" height="50" relative="1" as="geometry">
            <mxPoint x="45" y="1780" as="sourcePoint"/>
            <mxPoint x="95" y="1730" as="targetPoint"/>
          </mxGeometry>
        </mxCell>
        <mxCell id="M-8WFeIw9KGYcNQw-e4n-196" value="" style="endArrow=classic;html=1;exitX=0;exitY=0.5;exitDx=0;exitDy=0;entryX=1;entryY=0.5;entryDx=0;entryDy=0;" parent="1" source="M-8WFeIw9KGYcNQw-e4n-151" target="M-8WFeIw9KGYcNQw-e4n-162" edge="1">
          <mxGeometry width="50" height="50" relative="1" as="geometry">
            <mxPoint x="45" y="1780" as="sourcePoint"/>
            <mxPoint x="95" y="1730" as="targetPoint"/>
          </mxGeometry>
        </mxCell>
        <mxCell id="M-8WFeIw9KGYcNQw-e4n-197" value="" style="endArrow=classic;html=1;exitX=0;exitY=0.5;exitDx=0;exitDy=0;entryX=1;entryY=0.5;entryDx=0;entryDy=0;" parent="1" source="M-8WFeIw9KGYcNQw-e4n-185" target="M-8WFeIw9KGYcNQw-e4n-151" edge="1">
          <mxGeometry width="50" height="50" relative="1" as="geometry">
            <mxPoint x="45" y="1780" as="sourcePoint"/>
            <mxPoint x="95" y="1730" as="targetPoint"/>
          </mxGeometry>
        </mxCell>
        <mxCell id="M-8WFeIw9KGYcNQw-e4n-198" value="" style="endArrow=classic;html=1;exitX=0.5;exitY=0;exitDx=0;exitDy=0;entryX=0.5;entryY=1;entryDx=0;entryDy=0;" parent="1" source="M-8WFeIw9KGYcNQw-e4n-192" target="M-8WFeIw9KGYcNQw-e4n-185" edge="1">
          <mxGeometry width="50" height="50" relative="1" as="geometry">
            <mxPoint x="45" y="1780" as="sourcePoint"/>
            <mxPoint x="95" y="1730" as="targetPoint"/>
          </mxGeometry>
        </mxCell>
        <mxCell id="M-8WFeIw9KGYcNQw-e4n-199" value="" style="endArrow=classic;html=1;exitX=0.5;exitY=0;exitDx=0;exitDy=0;entryX=0.5;entryY=1;entryDx=0;entryDy=0;" parent="1" source="M-8WFeIw9KGYcNQw-e4n-191" target="M-8WFeIw9KGYcNQw-e4n-181" edge="1">
          <mxGeometry width="50" height="50" relative="1" as="geometry">
            <mxPoint x="45" y="1780" as="sourcePoint"/>
            <mxPoint x="95" y="1730" as="targetPoint"/>
          </mxGeometry>
        </mxCell>
        <mxCell id="M-8WFeIw9KGYcNQw-e4n-200" value="" style="endArrow=classic;html=1;exitX=0.5;exitY=0;exitDx=0;exitDy=0;entryX=0.5;entryY=1;entryDx=0;entryDy=0;" parent="1" source="M-8WFeIw9KGYcNQw-e4n-181" target="M-8WFeIw9KGYcNQw-e4n-192" edge="1">
          <mxGeometry width="50" height="50" relative="1" as="geometry">
            <mxPoint x="35" y="1860" as="sourcePoint"/>
            <mxPoint x="85" y="1810" as="targetPoint"/>
          </mxGeometry>
        </mxCell>
        <mxCell id="M-8WFeIw9KGYcNQw-e4n-201" value="" style="endArrow=classic;html=1;exitX=0;exitY=0.5;exitDx=0;exitDy=0;entryX=1;entryY=0.5;entryDx=0;entryDy=0;" parent="1" source="M-8WFeIw9KGYcNQw-e4n-190" target="M-8WFeIw9KGYcNQw-e4n-192" edge="1">
          <mxGeometry width="50" height="50" relative="1" as="geometry">
            <mxPoint x="465" y="1665" as="sourcePoint"/>
            <mxPoint x="515" y="1615" as="targetPoint"/>
          </mxGeometry>
        </mxCell>
        <mxCell id="M-8WFeIw9KGYcNQw-e4n-203" value="" style="ellipse;whiteSpace=wrap;html=1;aspect=fixed;fillColor=#dae8fc;strokeColor=#6c8ebf;" parent="1" vertex="1">
          <mxGeometry x="287.5" y="1590" width="20" height="20" as="geometry"/>
        </mxCell>
        <mxCell id="M-8WFeIw9KGYcNQw-e4n-204" value="" style="endArrow=classic;html=1;exitX=0;exitY=0;exitDx=0;exitDy=0;entryX=1;entryY=1;entryDx=0;entryDy=0;" parent="1" source="M-8WFeIw9KGYcNQw-e4n-203" target="M-8WFeIw9KGYcNQw-e4n-192" edge="1">
          <mxGeometry width="50" height="50" relative="1" as="geometry">
            <mxPoint x="45" y="1780" as="sourcePoint"/>
            <mxPoint x="95" y="1730" as="targetPoint"/>
          </mxGeometry>
        </mxCell>
        <mxCell id="M-8WFeIw9KGYcNQw-e4n-205" value="" style="endArrow=classic;html=1;exitX=0.5;exitY=0;exitDx=0;exitDy=0;entryX=0.5;entryY=1;entryDx=0;entryDy=0;" parent="1" source="M-8WFeIw9KGYcNQw-e4n-180" target="M-8WFeIw9KGYcNQw-e4n-184" edge="1">
          <mxGeometry width="50" height="50" relative="1" as="geometry">
            <mxPoint x="35" y="1860" as="sourcePoint"/>
            <mxPoint x="85" y="1810" as="targetPoint"/>
          </mxGeometry>
        </mxCell>
        <mxCell id="M-8WFeIw9KGYcNQw-e4n-206" value="" style="endArrow=classic;html=1;exitX=0.5;exitY=0;exitDx=0;exitDy=0;entryX=1;entryY=1;entryDx=0;entryDy=0;" parent="1" source="M-8WFeIw9KGYcNQw-e4n-184" target="M-8WFeIw9KGYcNQw-e4n-203" edge="1">
          <mxGeometry width="50" height="50" relative="1" as="geometry">
            <mxPoint x="25" y="1940" as="sourcePoint"/>
            <mxPoint x="75" y="1890" as="targetPoint"/>
          </mxGeometry>
        </mxCell>
        <mxCell id="M-8WFeIw9KGYcNQw-e4n-207" value="" style="endArrow=classic;html=1;exitX=0;exitY=0.5;exitDx=0;exitDy=0;entryX=1;entryY=0.5;entryDx=0;entryDy=0;" parent="1" source="M-8WFeIw9KGYcNQw-e4n-182" target="M-8WFeIw9KGYcNQw-e4n-184" edge="1">
          <mxGeometry width="50" height="50" relative="1" as="geometry">
            <mxPoint x="435" y="1620" as="sourcePoint"/>
            <mxPoint x="485" y="1570" as="targetPoint"/>
          </mxGeometry>
        </mxCell>
        <mxCell id="M-8WFeIw9KGYcNQw-e4n-208" value="" style="endArrow=classic;html=1;exitX=0.5;exitY=0;exitDx=0;exitDy=0;entryX=0.5;entryY=1;entryDx=0;entryDy=0;" parent="1" source="M-8WFeIw9KGYcNQw-e4n-179" target="M-8WFeIw9KGYcNQw-e4n-182" edge="1">
          <mxGeometry width="50" height="50" relative="1" as="geometry">
            <mxPoint x="45" y="1780" as="sourcePoint"/>
            <mxPoint x="95" y="1730" as="targetPoint"/>
          </mxGeometry>
        </mxCell>
        <mxCell id="M-8WFeIw9KGYcNQw-e4n-210" value="" style="rounded=0;whiteSpace=wrap;html=1;fillColor=none;dashed=1;strokeWidth=3;" parent="1" vertex="1">
          <mxGeometry x="227.5" y="1540" width="167.5" height="170" as="geometry"/>
        </mxCell>
        <mxCell id="M-8WFeIw9KGYcNQw-e4n-211" value="Region of Interest" style="text;html=1;strokeColor=none;fillColor=none;align=center;verticalAlign=middle;whiteSpace=wrap;rounded=0;dashed=1;" parent="1" vertex="1">
          <mxGeometry x="250" y="1710" width="120" height="20" as="geometry"/>
        </mxCell>
        <mxCell id="M-8WFeIw9KGYcNQw-e4n-212" value="" style="rounded=0;whiteSpace=wrap;html=1;" parent="1" vertex="1">
          <mxGeometry x="65" y="1760" width="350" height="270" as="geometry"/>
        </mxCell>
        <mxCell id="M-8WFeIw9KGYcNQw-e4n-213" value="" style="ellipse;whiteSpace=wrap;html=1;aspect=fixed;fillColor=#dae8fc;strokeColor=#6c8ebf;" parent="1" vertex="1">
          <mxGeometry x="217.5" y="1860" width="40" height="40" as="geometry"/>
        </mxCell>
        <mxCell id="M-8WFeIw9KGYcNQw-e4n-217" value="&lt;b&gt;&amp;lt;100, (101, 111, 001), (01, 10, 11), (001, 101, 1111)&amp;gt;&lt;/b&gt;" style="rounded=0;whiteSpace=wrap;html=1;strokeWidth=1;fillColor=none;" parent="1" vertex="1">
          <mxGeometry x="85" y="1990" width="305" height="30" as="geometry"/>
        </mxCell>
        <mxCell id="M-8WFeIw9KGYcNQw-e4n-219" value="&lt;b&gt;&lt;font style=&quot;font-size: 11px&quot;&gt;&amp;lt;100001, 11, 111&amp;gt;&lt;/font&gt;&lt;/b&gt;" style="rounded=0;whiteSpace=wrap;html=1;strokeWidth=1;fillColor=none;" parent="1" vertex="1">
          <mxGeometry x="310" y="1770" width="95" height="30" as="geometry"/>
        </mxCell>
        <mxCell id="M-8WFeIw9KGYcNQw-e4n-220" value="&lt;b&gt;&lt;font style=&quot;font-size: 11px&quot;&gt;&amp;lt;100101, 10, 101&amp;gt;&lt;/font&gt;&lt;/b&gt;" style="rounded=0;whiteSpace=wrap;html=1;strokeWidth=1;fillColor=none;" parent="1" vertex="1">
          <mxGeometry x="193" y="1770" width="92" height="30" as="geometry"/>
        </mxCell>
        <mxCell id="M-8WFeIw9KGYcNQw-e4n-221" value="&lt;b&gt;&lt;font style=&quot;font-size: 11px&quot;&gt;&amp;lt;100101, 01, 001&amp;gt;&lt;/font&gt;&lt;/b&gt;" style="rounded=0;whiteSpace=wrap;html=1;strokeWidth=1;fillColor=none;" parent="1" vertex="1">
          <mxGeometry x="72.5" y="1770" width="92.5" height="30" as="geometry"/>
        </mxCell>
        <mxCell id="M-8WFeIw9KGYcNQw-e4n-225" value="" style="endArrow=classic;html=1;exitX=0.5;exitY=1;exitDx=0;exitDy=0;entryX=0.5;entryY=0;entryDx=0;entryDy=0;strokeWidth=2;" parent="1" source="M-8WFeIw9KGYcNQw-e4n-220" target="M-8WFeIw9KGYcNQw-e4n-213" edge="1">
          <mxGeometry width="50" height="50" relative="1" as="geometry">
            <mxPoint x="45" y="2100" as="sourcePoint"/>
            <mxPoint x="95" y="2050" as="targetPoint"/>
          </mxGeometry>
        </mxCell>
        <mxCell id="M-8WFeIw9KGYcNQw-e4n-227" value="" style="endArrow=classic;html=1;strokeColor=#000000;exitX=0.5;exitY=1;exitDx=0;exitDy=0;entryX=0;entryY=0;entryDx=0;entryDy=0;strokeWidth=2;" parent="1" source="M-8WFeIw9KGYcNQw-e4n-221" target="M-8WFeIw9KGYcNQw-e4n-213" edge="1">
          <mxGeometry width="50" height="50" relative="1" as="geometry">
            <mxPoint x="35" y="2180" as="sourcePoint"/>
            <mxPoint x="85" y="2130" as="targetPoint"/>
          </mxGeometry>
        </mxCell>
        <mxCell id="M-8WFeIw9KGYcNQw-e4n-228" value="" style="endArrow=classic;html=1;strokeColor=#000000;exitX=0.5;exitY=1;exitDx=0;exitDy=0;entryX=1;entryY=0;entryDx=0;entryDy=0;strokeWidth=2;" parent="1" source="M-8WFeIw9KGYcNQw-e4n-219" target="M-8WFeIw9KGYcNQw-e4n-213" edge="1">
          <mxGeometry width="50" height="50" relative="1" as="geometry">
            <mxPoint x="25" y="2260" as="sourcePoint"/>
            <mxPoint x="75" y="2210" as="targetPoint"/>
          </mxGeometry>
        </mxCell>
        <mxCell id="M-8WFeIw9KGYcNQw-e4n-229" value="" style="endArrow=classic;html=1;strokeColor=#000000;exitX=0.5;exitY=1;exitDx=0;exitDy=0;entryX=0.5;entryY=0;entryDx=0;entryDy=0;strokeWidth=2;" parent="1" source="M-8WFeIw9KGYcNQw-e4n-213" target="M-8WFeIw9KGYcNQw-e4n-217" edge="1">
          <mxGeometry width="50" height="50" relative="1" as="geometry">
            <mxPoint x="210" y="2120" as="sourcePoint"/>
            <mxPoint x="505" y="1820" as="targetPoint"/>
          </mxGeometry>
        </mxCell>
        <mxCell id="M-8WFeIw9KGYcNQw-e4n-230" value="" style="rounded=0;whiteSpace=wrap;html=1;strokeWidth=1;fillColor=none;" parent="1" vertex="1">
          <mxGeometry x="55" y="2110" width="350" height="80" as="geometry"/>
        </mxCell>
        <mxCell id="M-8WFeIw9KGYcNQw-e4n-233" style="edgeStyle=orthogonalEdgeStyle;rounded=0;orthogonalLoop=1;jettySize=auto;html=1;exitX=1;exitY=0.5;exitDx=0;exitDy=0;entryX=0;entryY=0.5;entryDx=0;entryDy=0;endArrow=classic;endFill=1;strokeColor=#000000;strokeWidth=2;" parent="1" source="M-8WFeIw9KGYcNQw-e4n-231" target="M-8WFeIw9KGYcNQw-e4n-232" edge="1">
          <mxGeometry relative="1" as="geometry"/>
        </mxCell>
        <mxCell id="M-8WFeIw9KGYcNQw-e4n-231" value="&lt;b&gt;original&lt;/b&gt;" style="shape=cylinder;whiteSpace=wrap;html=1;boundedLbl=1;backgroundOutline=1;strokeWidth=1;fillColor=#dae8fc;strokeColor=#6c8ebf;" parent="1" vertex="1">
          <mxGeometry x="62.5" y="2120" width="90" height="60" as="geometry"/>
        </mxCell>
        <mxCell id="M-8WFeIw9KGYcNQw-e4n-232" value="" style="shape=cylinder;whiteSpace=wrap;html=1;boundedLbl=1;backgroundOutline=1;strokeWidth=1;fillColor=#f8cecc;strokeColor=#b85450;" parent="1" vertex="1">
          <mxGeometry x="220" y="2135" width="17.5" height="30" as="geometry"/>
        </mxCell>
        <mxCell id="M-8WFeIw9KGYcNQw-e4n-234" value="&lt;b&gt;decompressed&lt;/b&gt;" style="shape=cylinder;whiteSpace=wrap;html=1;boundedLbl=1;backgroundOutline=1;strokeWidth=1;fillColor=#ffe6cc;strokeColor=#d79b00;" parent="1" vertex="1">
          <mxGeometry x="305" y="2120" width="92.5" height="60" as="geometry"/>
        </mxCell>
        <mxCell id="M-8WFeIw9KGYcNQw-e4n-235" style="edgeStyle=orthogonalEdgeStyle;rounded=0;orthogonalLoop=1;jettySize=auto;html=1;exitX=1;exitY=0.5;exitDx=0;exitDy=0;entryX=0;entryY=0.5;entryDx=0;entryDy=0;endArrow=classic;endFill=1;strokeColor=#000000;strokeWidth=2;" parent="1" source="M-8WFeIw9KGYcNQw-e4n-232" target="M-8WFeIw9KGYcNQw-e4n-234" edge="1">
          <mxGeometry relative="1" as="geometry">
            <mxPoint x="237.5" y="2149.5" as="sourcePoint"/>
            <mxPoint x="322.5" y="2149.5" as="targetPoint"/>
          </mxGeometry>
        </mxCell>
        <mxCell id="M-8WFeIw9KGYcNQw-e4n-238" value="encoder" style="text;html=1;strokeColor=none;fillColor=none;align=center;verticalAlign=middle;whiteSpace=wrap;rounded=0;" parent="1" vertex="1">
          <mxGeometry x="163" y="2130" width="40" height="20" as="geometry"/>
        </mxCell>
        <mxCell id="M-8WFeIw9KGYcNQw-e4n-239" value="decoder" style="text;html=1;strokeColor=none;fillColor=none;align=center;verticalAlign=middle;whiteSpace=wrap;rounded=0;" parent="1" vertex="1">
          <mxGeometry x="247.5" y="2130" width="40" height="20" as="geometry"/>
        </mxCell>
        <mxCell id="M-8WFeIw9KGYcNQw-e4n-240" value="" style="rounded=0;whiteSpace=wrap;html=1;strokeWidth=1;fillColor=none;" parent="1" vertex="1">
          <mxGeometry x="55" y="2780" width="280" height="140" as="geometry"/>
        </mxCell>
        <mxCell id="M-8WFeIw9KGYcNQw-e4n-241" value="B" style="ellipse;whiteSpace=wrap;html=1;aspect=fixed;fillColor=#dae8fc;strokeColor=#6c8ebf;" parent="1" vertex="1">
          <mxGeometry x="81.25" y="2400" width="20" height="20" as="geometry"/>
        </mxCell>
        <mxCell id="M-8WFeIw9KGYcNQw-e4n-242" value="A" style="ellipse;whiteSpace=wrap;html=1;aspect=fixed;fillColor=#dae8fc;strokeColor=#6c8ebf;" parent="1" vertex="1">
          <mxGeometry x="125.63" y="2360" width="18.12" height="18.12" as="geometry"/>
        </mxCell>
        <mxCell id="M-8WFeIw9KGYcNQw-e4n-243" value="C" style="ellipse;whiteSpace=wrap;html=1;aspect=fixed;fillColor=#dae8fc;strokeColor=#6c8ebf;" parent="1" vertex="1">
          <mxGeometry x="40" y="2360" width="20" height="20" as="geometry"/>
        </mxCell>
        <mxCell id="M-8WFeIw9KGYcNQw-e4n-244" value="" style="ellipse;whiteSpace=wrap;html=1;aspect=fixed;fillColor=#dae8fc;strokeColor=#6c8ebf;" parent="1" vertex="1">
          <mxGeometry x="118.25" y="2440" width="20" height="20" as="geometry"/>
        </mxCell>
        <mxCell id="M-8WFeIw9KGYcNQw-e4n-245" value="" style="ellipse;whiteSpace=wrap;html=1;aspect=fixed;fillColor=#dae8fc;strokeColor=#6c8ebf;" parent="1" vertex="1">
          <mxGeometry x="26.25" y="2420" width="20" height="20" as="geometry"/>
        </mxCell>
        <mxCell id="M-8WFeIw9KGYcNQw-e4n-246" value="D" style="ellipse;whiteSpace=wrap;html=1;aspect=fixed;fillColor=#dae8fc;strokeColor=#6c8ebf;" parent="1" vertex="1">
          <mxGeometry x="63.129999999999995" y="2460" width="20" height="20" as="geometry"/>
        </mxCell>
        <mxCell id="M-8WFeIw9KGYcNQw-e4n-248" value="" style="endArrow=none;html=1;strokeColor=#000000;strokeWidth=1;entryX=1;entryY=1;entryDx=0;entryDy=0;exitX=0;exitY=0;exitDx=0;exitDy=0;" parent="1" source="M-8WFeIw9KGYcNQw-e4n-241" target="M-8WFeIw9KGYcNQw-e4n-243" edge="1">
          <mxGeometry width="50" height="50" relative="1" as="geometry">
            <mxPoint x="50.629999999999995" y="2590" as="sourcePoint"/>
            <mxPoint x="100.63" y="2540" as="targetPoint"/>
          </mxGeometry>
        </mxCell>
        <mxCell id="M-8WFeIw9KGYcNQw-e4n-249" value="" style="endArrow=none;html=1;strokeColor=#000000;strokeWidth=1;entryX=0;entryY=1;entryDx=0;entryDy=0;exitX=0.5;exitY=0;exitDx=0;exitDy=0;" parent="1" source="M-8WFeIw9KGYcNQw-e4n-245" target="M-8WFeIw9KGYcNQw-e4n-243" edge="1">
          <mxGeometry width="50" height="50" relative="1" as="geometry">
            <mxPoint x="-45" y="2440" as="sourcePoint"/>
            <mxPoint x="5" y="2390" as="targetPoint"/>
          </mxGeometry>
        </mxCell>
        <mxCell id="M-8WFeIw9KGYcNQw-e4n-250" value="" style="endArrow=none;html=1;strokeColor=#000000;strokeWidth=1;entryX=1;entryY=1;entryDx=0;entryDy=0;exitX=0;exitY=0;exitDx=0;exitDy=0;" parent="1" source="M-8WFeIw9KGYcNQw-e4n-246" target="M-8WFeIw9KGYcNQw-e4n-245" edge="1">
          <mxGeometry width="50" height="50" relative="1" as="geometry">
            <mxPoint x="26.25" y="2640" as="sourcePoint"/>
            <mxPoint x="76.25" y="2590" as="targetPoint"/>
          </mxGeometry>
        </mxCell>
        <mxCell id="M-8WFeIw9KGYcNQw-e4n-251" value="" style="endArrow=none;html=1;strokeColor=#000000;strokeWidth=1;exitX=1;exitY=0.5;exitDx=0;exitDy=0;entryX=0;entryY=1;entryDx=0;entryDy=0;" parent="1" source="M-8WFeIw9KGYcNQw-e4n-246" target="M-8WFeIw9KGYcNQw-e4n-244" edge="1">
          <mxGeometry width="50" height="50" relative="1" as="geometry">
            <mxPoint x="83.13" y="2580" as="sourcePoint"/>
            <mxPoint x="133.13" y="2530" as="targetPoint"/>
          </mxGeometry>
        </mxCell>
        <mxCell id="M-8WFeIw9KGYcNQw-e4n-252" value="" style="endArrow=none;html=1;strokeColor=#000000;strokeWidth=1;entryX=0.5;entryY=1;entryDx=0;entryDy=0;exitX=0.5;exitY=0;exitDx=0;exitDy=0;" parent="1" source="M-8WFeIw9KGYcNQw-e4n-246" target="M-8WFeIw9KGYcNQw-e4n-241" edge="1">
          <mxGeometry width="50" height="50" relative="1" as="geometry">
            <mxPoint x="72.5" y="2560" as="sourcePoint"/>
            <mxPoint x="122.5" y="2510" as="targetPoint"/>
          </mxGeometry>
        </mxCell>
        <mxCell id="M-8WFeIw9KGYcNQw-e4n-253" value="" style="endArrow=none;html=1;strokeColor=#000000;strokeWidth=1;entryX=0;entryY=0.5;entryDx=0;entryDy=0;exitX=1;exitY=0;exitDx=0;exitDy=0;" parent="1" source="M-8WFeIw9KGYcNQw-e4n-245" target="M-8WFeIw9KGYcNQw-e4n-241" edge="1">
          <mxGeometry width="50" height="50" relative="1" as="geometry">
            <mxPoint x="2.5" y="2550" as="sourcePoint"/>
            <mxPoint x="52.5" y="2500" as="targetPoint"/>
          </mxGeometry>
        </mxCell>
        <mxCell id="M-8WFeIw9KGYcNQw-e4n-254" value="" style="endArrow=none;html=1;strokeColor=#000000;strokeWidth=2;entryX=0;entryY=1;entryDx=0;entryDy=0;exitX=1;exitY=0;exitDx=0;exitDy=0;startArrow=classicThin;startFill=1;" parent="1" source="M-8WFeIw9KGYcNQw-e4n-241" target="M-8WFeIw9KGYcNQw-e4n-242" edge="1">
          <mxGeometry width="50" height="50" relative="1" as="geometry">
            <mxPoint x="163" y="2510" as="sourcePoint"/>
            <mxPoint x="213" y="2460" as="targetPoint"/>
          </mxGeometry>
        </mxCell>
        <mxCell id="M-8WFeIw9KGYcNQw-e4n-255" value="" style="endArrow=none;html=1;strokeColor=#000000;strokeWidth=1;entryX=1;entryY=1;entryDx=0;entryDy=0;exitX=0;exitY=0;exitDx=0;exitDy=0;" parent="1" source="M-8WFeIw9KGYcNQw-e4n-244" target="M-8WFeIw9KGYcNQw-e4n-241" edge="1">
          <mxGeometry width="50" height="50" relative="1" as="geometry">
            <mxPoint x="123" y="2550" as="sourcePoint"/>
            <mxPoint x="173" y="2500" as="targetPoint"/>
          </mxGeometry>
        </mxCell>
        <mxCell id="M-8WFeIw9KGYcNQw-e4n-286" value="B" style="ellipse;whiteSpace=wrap;html=1;aspect=fixed;fillColor=#dae8fc;strokeColor=#6c8ebf;" parent="1" vertex="1">
          <mxGeometry x="239.25" y="2400" width="20" height="20" as="geometry"/>
        </mxCell>
        <mxCell id="M-8WFeIw9KGYcNQw-e4n-287" value="A" style="ellipse;whiteSpace=wrap;html=1;aspect=fixed;fillColor=#dae8fc;strokeColor=#6c8ebf;" parent="1" vertex="1">
          <mxGeometry x="283.63" y="2360" width="18.12" height="18.12" as="geometry"/>
        </mxCell>
        <mxCell id="M-8WFeIw9KGYcNQw-e4n-288" value="C" style="ellipse;whiteSpace=wrap;html=1;aspect=fixed;fillColor=#dae8fc;strokeColor=#6c8ebf;" parent="1" vertex="1">
          <mxGeometry x="198" y="2360" width="20" height="20" as="geometry"/>
        </mxCell>
        <mxCell id="M-8WFeIw9KGYcNQw-e4n-289" value="" style="ellipse;whiteSpace=wrap;html=1;aspect=fixed;fillColor=#dae8fc;strokeColor=#6c8ebf;" parent="1" vertex="1">
          <mxGeometry x="276.25" y="2440" width="20" height="20" as="geometry"/>
        </mxCell>
        <mxCell id="M-8WFeIw9KGYcNQw-e4n-290" value="" style="ellipse;whiteSpace=wrap;html=1;aspect=fixed;fillColor=#dae8fc;strokeColor=#6c8ebf;" parent="1" vertex="1">
          <mxGeometry x="184.25" y="2420" width="20" height="20" as="geometry"/>
        </mxCell>
        <mxCell id="M-8WFeIw9KGYcNQw-e4n-291" value="D" style="ellipse;whiteSpace=wrap;html=1;aspect=fixed;fillColor=#dae8fc;strokeColor=#6c8ebf;" parent="1" vertex="1">
          <mxGeometry x="221.13" y="2460" width="20" height="20" as="geometry"/>
        </mxCell>
        <mxCell id="M-8WFeIw9KGYcNQw-e4n-292" value="" style="endArrow=none;html=1;strokeColor=#000000;strokeWidth=1;entryX=1;entryY=1;entryDx=0;entryDy=0;exitX=0;exitY=0;exitDx=0;exitDy=0;" parent="1" source="M-8WFeIw9KGYcNQw-e4n-286" target="M-8WFeIw9KGYcNQw-e4n-288" edge="1">
          <mxGeometry width="50" height="50" relative="1" as="geometry">
            <mxPoint x="208.63" y="2590" as="sourcePoint"/>
            <mxPoint x="258.63" y="2540" as="targetPoint"/>
          </mxGeometry>
        </mxCell>
        <mxCell id="M-8WFeIw9KGYcNQw-e4n-293" value="" style="endArrow=none;html=1;strokeColor=#000000;strokeWidth=1;entryX=0;entryY=1;entryDx=0;entryDy=0;exitX=0.5;exitY=0;exitDx=0;exitDy=0;" parent="1" source="M-8WFeIw9KGYcNQw-e4n-290" target="M-8WFeIw9KGYcNQw-e4n-288" edge="1">
          <mxGeometry width="50" height="50" relative="1" as="geometry">
            <mxPoint x="113" y="2440" as="sourcePoint"/>
            <mxPoint x="163" y="2390" as="targetPoint"/>
          </mxGeometry>
        </mxCell>
        <mxCell id="M-8WFeIw9KGYcNQw-e4n-294" value="" style="endArrow=none;html=1;strokeColor=#000000;strokeWidth=1;entryX=1;entryY=1;entryDx=0;entryDy=0;exitX=0;exitY=0;exitDx=0;exitDy=0;" parent="1" source="M-8WFeIw9KGYcNQw-e4n-291" target="M-8WFeIw9KGYcNQw-e4n-290" edge="1">
          <mxGeometry width="50" height="50" relative="1" as="geometry">
            <mxPoint x="184.25" y="2640" as="sourcePoint"/>
            <mxPoint x="234.25" y="2590" as="targetPoint"/>
          </mxGeometry>
        </mxCell>
        <mxCell id="M-8WFeIw9KGYcNQw-e4n-295" value="" style="endArrow=none;html=1;strokeColor=#000000;strokeWidth=1;exitX=1;exitY=0.5;exitDx=0;exitDy=0;entryX=0;entryY=1;entryDx=0;entryDy=0;" parent="1" source="M-8WFeIw9KGYcNQw-e4n-291" target="M-8WFeIw9KGYcNQw-e4n-289" edge="1">
          <mxGeometry width="50" height="50" relative="1" as="geometry">
            <mxPoint x="241.13" y="2580" as="sourcePoint"/>
            <mxPoint x="291.13" y="2530" as="targetPoint"/>
          </mxGeometry>
        </mxCell>
        <mxCell id="M-8WFeIw9KGYcNQw-e4n-296" value="" style="endArrow=none;html=1;strokeColor=#000000;strokeWidth=1;entryX=0.5;entryY=1;entryDx=0;entryDy=0;exitX=0.5;exitY=0;exitDx=0;exitDy=0;" parent="1" source="M-8WFeIw9KGYcNQw-e4n-291" target="M-8WFeIw9KGYcNQw-e4n-286" edge="1">
          <mxGeometry width="50" height="50" relative="1" as="geometry">
            <mxPoint x="230.5" y="2560" as="sourcePoint"/>
            <mxPoint x="280.5" y="2510" as="targetPoint"/>
          </mxGeometry>
        </mxCell>
        <mxCell id="M-8WFeIw9KGYcNQw-e4n-297" value="" style="endArrow=none;html=1;strokeColor=#000000;strokeWidth=1;entryX=0;entryY=0.5;entryDx=0;entryDy=0;exitX=1;exitY=0;exitDx=0;exitDy=0;" parent="1" source="M-8WFeIw9KGYcNQw-e4n-290" target="M-8WFeIw9KGYcNQw-e4n-286" edge="1">
          <mxGeometry width="50" height="50" relative="1" as="geometry">
            <mxPoint x="160.5" y="2550" as="sourcePoint"/>
            <mxPoint x="210.5" y="2500" as="targetPoint"/>
          </mxGeometry>
        </mxCell>
        <mxCell id="M-8WFeIw9KGYcNQw-e4n-298" value="" style="endArrow=classicThin;html=1;strokeColor=#000000;strokeWidth=2;entryX=0;entryY=1;entryDx=0;entryDy=0;exitX=1;exitY=0;exitDx=0;exitDy=0;endFill=1;" parent="1" source="M-8WFeIw9KGYcNQw-e4n-286" target="M-8WFeIw9KGYcNQw-e4n-287" edge="1">
          <mxGeometry width="50" height="50" relative="1" as="geometry">
            <mxPoint x="321" y="2510" as="sourcePoint"/>
            <mxPoint x="371" y="2460" as="targetPoint"/>
          </mxGeometry>
        </mxCell>
        <mxCell id="M-8WFeIw9KGYcNQw-e4n-299" value="" style="endArrow=none;html=1;strokeColor=#000000;strokeWidth=1;entryX=1;entryY=1;entryDx=0;entryDy=0;exitX=0;exitY=0;exitDx=0;exitDy=0;" parent="1" source="M-8WFeIw9KGYcNQw-e4n-289" target="M-8WFeIw9KGYcNQw-e4n-286" edge="1">
          <mxGeometry width="50" height="50" relative="1" as="geometry">
            <mxPoint x="281" y="2550" as="sourcePoint"/>
            <mxPoint x="331" y="2500" as="targetPoint"/>
          </mxGeometry>
        </mxCell>
        <mxCell id="M-8WFeIw9KGYcNQw-e4n-376" value="B" style="ellipse;whiteSpace=wrap;html=1;aspect=fixed;fillColor=#dae8fc;strokeColor=#6c8ebf;" parent="1" vertex="1">
          <mxGeometry x="239.75" y="2590" width="20" height="20" as="geometry"/>
        </mxCell>
        <mxCell id="M-8WFeIw9KGYcNQw-e4n-377" value="A" style="ellipse;whiteSpace=wrap;html=1;aspect=fixed;fillColor=#dae8fc;strokeColor=#6c8ebf;" parent="1" vertex="1">
          <mxGeometry x="284.13" y="2550" width="18.12" height="18.12" as="geometry"/>
        </mxCell>
        <mxCell id="M-8WFeIw9KGYcNQw-e4n-378" value="C" style="ellipse;whiteSpace=wrap;html=1;aspect=fixed;fillColor=#dae8fc;strokeColor=#6c8ebf;" parent="1" vertex="1">
          <mxGeometry x="198.5" y="2550" width="20" height="20" as="geometry"/>
        </mxCell>
        <mxCell id="M-8WFeIw9KGYcNQw-e4n-379" value="" style="ellipse;whiteSpace=wrap;html=1;aspect=fixed;fillColor=#dae8fc;strokeColor=#6c8ebf;" parent="1" vertex="1">
          <mxGeometry x="276.75" y="2630" width="20" height="20" as="geometry"/>
        </mxCell>
        <mxCell id="M-8WFeIw9KGYcNQw-e4n-380" value="" style="ellipse;whiteSpace=wrap;html=1;aspect=fixed;fillColor=#dae8fc;strokeColor=#6c8ebf;" parent="1" vertex="1">
          <mxGeometry x="184.75" y="2610" width="20" height="20" as="geometry"/>
        </mxCell>
        <mxCell id="M-8WFeIw9KGYcNQw-e4n-381" value="D" style="ellipse;whiteSpace=wrap;html=1;aspect=fixed;fillColor=#dae8fc;strokeColor=#6c8ebf;" parent="1" vertex="1">
          <mxGeometry x="221.63" y="2650" width="20" height="20" as="geometry"/>
        </mxCell>
        <mxCell id="M-8WFeIw9KGYcNQw-e4n-382" value="" style="endArrow=none;html=1;strokeColor=#000000;strokeWidth=2;entryX=1;entryY=1;entryDx=0;entryDy=0;exitX=0;exitY=0;exitDx=0;exitDy=0;endFill=0;startArrow=classicThin;startFill=1;" parent="1" source="M-8WFeIw9KGYcNQw-e4n-376" target="M-8WFeIw9KGYcNQw-e4n-378" edge="1">
          <mxGeometry width="50" height="50" relative="1" as="geometry">
            <mxPoint x="209.13" y="2780" as="sourcePoint"/>
            <mxPoint x="259.13" y="2730" as="targetPoint"/>
          </mxGeometry>
        </mxCell>
        <mxCell id="M-8WFeIw9KGYcNQw-e4n-383" value="" style="endArrow=none;html=1;strokeColor=#000000;strokeWidth=1;entryX=0;entryY=1;entryDx=0;entryDy=0;exitX=0.5;exitY=0;exitDx=0;exitDy=0;" parent="1" source="M-8WFeIw9KGYcNQw-e4n-380" target="M-8WFeIw9KGYcNQw-e4n-378" edge="1">
          <mxGeometry width="50" height="50" relative="1" as="geometry">
            <mxPoint x="113.5" y="2630" as="sourcePoint"/>
            <mxPoint x="163.5" y="2580" as="targetPoint"/>
          </mxGeometry>
        </mxCell>
        <mxCell id="M-8WFeIw9KGYcNQw-e4n-384" value="" style="endArrow=none;html=1;strokeColor=#000000;strokeWidth=1;entryX=1;entryY=1;entryDx=0;entryDy=0;exitX=0;exitY=0;exitDx=0;exitDy=0;" parent="1" source="M-8WFeIw9KGYcNQw-e4n-381" target="M-8WFeIw9KGYcNQw-e4n-380" edge="1">
          <mxGeometry width="50" height="50" relative="1" as="geometry">
            <mxPoint x="184.75" y="2830" as="sourcePoint"/>
            <mxPoint x="234.75" y="2780" as="targetPoint"/>
          </mxGeometry>
        </mxCell>
        <mxCell id="M-8WFeIw9KGYcNQw-e4n-385" value="" style="endArrow=none;html=1;strokeColor=#000000;strokeWidth=1;exitX=1;exitY=0.5;exitDx=0;exitDy=0;entryX=0;entryY=1;entryDx=0;entryDy=0;" parent="1" source="M-8WFeIw9KGYcNQw-e4n-381" target="M-8WFeIw9KGYcNQw-e4n-379" edge="1">
          <mxGeometry width="50" height="50" relative="1" as="geometry">
            <mxPoint x="241.63" y="2770" as="sourcePoint"/>
            <mxPoint x="291.63" y="2720" as="targetPoint"/>
          </mxGeometry>
        </mxCell>
        <mxCell id="M-8WFeIw9KGYcNQw-e4n-386" value="" style="endArrow=classicThin;html=1;strokeColor=#000000;strokeWidth=2;entryX=0.5;entryY=1;entryDx=0;entryDy=0;exitX=0.5;exitY=0;exitDx=0;exitDy=0;startArrow=none;startFill=0;endFill=1;" parent="1" source="M-8WFeIw9KGYcNQw-e4n-381" target="M-8WFeIw9KGYcNQw-e4n-376" edge="1">
          <mxGeometry width="50" height="50" relative="1" as="geometry">
            <mxPoint x="231" y="2750" as="sourcePoint"/>
            <mxPoint x="281" y="2700" as="targetPoint"/>
          </mxGeometry>
        </mxCell>
        <mxCell id="M-8WFeIw9KGYcNQw-e4n-387" value="" style="endArrow=none;html=1;strokeColor=#000000;strokeWidth=1;entryX=0;entryY=0.5;entryDx=0;entryDy=0;exitX=1;exitY=0;exitDx=0;exitDy=0;" parent="1" source="M-8WFeIw9KGYcNQw-e4n-380" target="M-8WFeIw9KGYcNQw-e4n-376" edge="1">
          <mxGeometry width="50" height="50" relative="1" as="geometry">
            <mxPoint x="161" y="2740" as="sourcePoint"/>
            <mxPoint x="211" y="2690" as="targetPoint"/>
          </mxGeometry>
        </mxCell>
        <mxCell id="M-8WFeIw9KGYcNQw-e4n-388" value="" style="endArrow=none;html=1;strokeColor=#000000;strokeWidth=1;entryX=0;entryY=1;entryDx=0;entryDy=0;exitX=1;exitY=0;exitDx=0;exitDy=0;" parent="1" source="M-8WFeIw9KGYcNQw-e4n-376" target="M-8WFeIw9KGYcNQw-e4n-377" edge="1">
          <mxGeometry width="50" height="50" relative="1" as="geometry">
            <mxPoint x="321.5" y="2700" as="sourcePoint"/>
            <mxPoint x="371.5" y="2650" as="targetPoint"/>
          </mxGeometry>
        </mxCell>
        <mxCell id="M-8WFeIw9KGYcNQw-e4n-389" value="" style="endArrow=none;html=1;strokeColor=#000000;strokeWidth=1;entryX=1;entryY=1;entryDx=0;entryDy=0;exitX=0;exitY=0;exitDx=0;exitDy=0;" parent="1" source="M-8WFeIw9KGYcNQw-e4n-379" target="M-8WFeIw9KGYcNQw-e4n-376" edge="1">
          <mxGeometry width="50" height="50" relative="1" as="geometry">
            <mxPoint x="281.5" y="2740" as="sourcePoint"/>
            <mxPoint x="331.5" y="2690" as="targetPoint"/>
          </mxGeometry>
        </mxCell>
        <mxCell id="M-8WFeIw9KGYcNQw-e4n-391" value="B" style="ellipse;whiteSpace=wrap;html=1;aspect=fixed;fillColor=#dae8fc;strokeColor=#6c8ebf;" parent="1" vertex="1">
          <mxGeometry x="396.75" y="2590" width="20" height="20" as="geometry"/>
        </mxCell>
        <mxCell id="M-8WFeIw9KGYcNQw-e4n-392" value="A" style="ellipse;whiteSpace=wrap;html=1;aspect=fixed;fillColor=#dae8fc;strokeColor=#6c8ebf;" parent="1" vertex="1">
          <mxGeometry x="441.13" y="2550" width="18.12" height="18.12" as="geometry"/>
        </mxCell>
        <mxCell id="M-8WFeIw9KGYcNQw-e4n-393" value="C" style="ellipse;whiteSpace=wrap;html=1;aspect=fixed;fillColor=#dae8fc;strokeColor=#6c8ebf;" parent="1" vertex="1">
          <mxGeometry x="355.5" y="2550" width="20" height="20" as="geometry"/>
        </mxCell>
        <mxCell id="M-8WFeIw9KGYcNQw-e4n-394" value="" style="ellipse;whiteSpace=wrap;html=1;aspect=fixed;fillColor=#dae8fc;strokeColor=#6c8ebf;" parent="1" vertex="1">
          <mxGeometry x="433.75" y="2630" width="20" height="20" as="geometry"/>
        </mxCell>
        <mxCell id="M-8WFeIw9KGYcNQw-e4n-395" value="" style="ellipse;whiteSpace=wrap;html=1;aspect=fixed;fillColor=#dae8fc;strokeColor=#6c8ebf;" parent="1" vertex="1">
          <mxGeometry x="341.75" y="2610" width="20" height="20" as="geometry"/>
        </mxCell>
        <mxCell id="M-8WFeIw9KGYcNQw-e4n-396" value="D" style="ellipse;whiteSpace=wrap;html=1;aspect=fixed;fillColor=#dae8fc;strokeColor=#6c8ebf;" parent="1" vertex="1">
          <mxGeometry x="378.63" y="2650" width="20" height="20" as="geometry"/>
        </mxCell>
        <mxCell id="M-8WFeIw9KGYcNQw-e4n-397" value="" style="endArrow=classicThin;html=1;strokeColor=#000000;strokeWidth=2;entryX=1;entryY=1;entryDx=0;entryDy=0;exitX=0;exitY=0;exitDx=0;exitDy=0;endFill=1;" parent="1" source="M-8WFeIw9KGYcNQw-e4n-391" target="M-8WFeIw9KGYcNQw-e4n-393" edge="1">
          <mxGeometry width="50" height="50" relative="1" as="geometry">
            <mxPoint x="366.13" y="2780" as="sourcePoint"/>
            <mxPoint x="416.13" y="2730" as="targetPoint"/>
          </mxGeometry>
        </mxCell>
        <mxCell id="M-8WFeIw9KGYcNQw-e4n-398" value="" style="endArrow=none;html=1;strokeColor=#000000;strokeWidth=1;entryX=0;entryY=1;entryDx=0;entryDy=0;exitX=0.5;exitY=0;exitDx=0;exitDy=0;" parent="1" source="M-8WFeIw9KGYcNQw-e4n-395" target="M-8WFeIw9KGYcNQw-e4n-393" edge="1">
          <mxGeometry width="50" height="50" relative="1" as="geometry">
            <mxPoint x="270.5" y="2630" as="sourcePoint"/>
            <mxPoint x="320.5" y="2580" as="targetPoint"/>
          </mxGeometry>
        </mxCell>
        <mxCell id="M-8WFeIw9KGYcNQw-e4n-399" value="" style="endArrow=none;html=1;strokeColor=#000000;strokeWidth=1;entryX=1;entryY=1;entryDx=0;entryDy=0;exitX=0;exitY=0;exitDx=0;exitDy=0;" parent="1" source="M-8WFeIw9KGYcNQw-e4n-396" target="M-8WFeIw9KGYcNQw-e4n-395" edge="1">
          <mxGeometry width="50" height="50" relative="1" as="geometry">
            <mxPoint x="341.75" y="2830" as="sourcePoint"/>
            <mxPoint x="391.75" y="2780" as="targetPoint"/>
          </mxGeometry>
        </mxCell>
        <mxCell id="M-8WFeIw9KGYcNQw-e4n-400" value="" style="endArrow=none;html=1;strokeColor=#000000;strokeWidth=1;exitX=1;exitY=0.5;exitDx=0;exitDy=0;entryX=0;entryY=1;entryDx=0;entryDy=0;" parent="1" source="M-8WFeIw9KGYcNQw-e4n-396" target="M-8WFeIw9KGYcNQw-e4n-394" edge="1">
          <mxGeometry width="50" height="50" relative="1" as="geometry">
            <mxPoint x="398.63" y="2770" as="sourcePoint"/>
            <mxPoint x="448.63" y="2720" as="targetPoint"/>
          </mxGeometry>
        </mxCell>
        <mxCell id="M-8WFeIw9KGYcNQw-e4n-401" value="" style="endArrow=none;html=1;strokeColor=#000000;strokeWidth=2;entryX=0.5;entryY=1;entryDx=0;entryDy=0;exitX=0.5;exitY=0;exitDx=0;exitDy=0;startArrow=classicThin;startFill=1;" parent="1" source="M-8WFeIw9KGYcNQw-e4n-396" target="M-8WFeIw9KGYcNQw-e4n-391" edge="1">
          <mxGeometry width="50" height="50" relative="1" as="geometry">
            <mxPoint x="388" y="2750" as="sourcePoint"/>
            <mxPoint x="438" y="2700" as="targetPoint"/>
          </mxGeometry>
        </mxCell>
        <mxCell id="M-8WFeIw9KGYcNQw-e4n-402" value="" style="endArrow=none;html=1;strokeColor=#000000;strokeWidth=1;entryX=0;entryY=0.5;entryDx=0;entryDy=0;exitX=1;exitY=0;exitDx=0;exitDy=0;" parent="1" source="M-8WFeIw9KGYcNQw-e4n-395" target="M-8WFeIw9KGYcNQw-e4n-391" edge="1">
          <mxGeometry width="50" height="50" relative="1" as="geometry">
            <mxPoint x="318" y="2740" as="sourcePoint"/>
            <mxPoint x="368" y="2690" as="targetPoint"/>
          </mxGeometry>
        </mxCell>
        <mxCell id="M-8WFeIw9KGYcNQw-e4n-403" value="" style="endArrow=none;html=1;strokeColor=#000000;strokeWidth=1;entryX=0;entryY=1;entryDx=0;entryDy=0;exitX=1;exitY=0;exitDx=0;exitDy=0;" parent="1" source="M-8WFeIw9KGYcNQw-e4n-391" target="M-8WFeIw9KGYcNQw-e4n-392" edge="1">
          <mxGeometry width="50" height="50" relative="1" as="geometry">
            <mxPoint x="478.5" y="2700" as="sourcePoint"/>
            <mxPoint x="528.5" y="2650" as="targetPoint"/>
          </mxGeometry>
        </mxCell>
        <mxCell id="M-8WFeIw9KGYcNQw-e4n-404" value="" style="endArrow=none;html=1;strokeColor=#000000;strokeWidth=1;entryX=1;entryY=1;entryDx=0;entryDy=0;exitX=0;exitY=0;exitDx=0;exitDy=0;" parent="1" source="M-8WFeIw9KGYcNQw-e4n-394" target="M-8WFeIw9KGYcNQw-e4n-391" edge="1">
          <mxGeometry width="50" height="50" relative="1" as="geometry">
            <mxPoint x="438.5" y="2740" as="sourcePoint"/>
            <mxPoint x="488.5" y="2690" as="targetPoint"/>
          </mxGeometry>
        </mxCell>
        <mxCell id="M-8WFeIw9KGYcNQw-e4n-406" value="&lt;b&gt;ADV&lt;/b&gt;" style="text;html=1;strokeColor=none;fillColor=none;align=center;verticalAlign=middle;whiteSpace=wrap;rounded=0;rotation=-45;" parent="1" vertex="1">
          <mxGeometry x="103.75" y="2383" width="40" height="20" as="geometry"/>
        </mxCell>
        <mxCell id="M-8WFeIw9KGYcNQw-e4n-407" value="&lt;b&gt;REQ&lt;/b&gt;" style="text;html=1;strokeColor=none;fillColor=none;align=center;verticalAlign=middle;whiteSpace=wrap;rounded=0;rotation=-45;" parent="1" vertex="1">
          <mxGeometry x="253" y="2390" width="40" height="20" as="geometry"/>
        </mxCell>
        <mxCell id="M-8WFeIw9KGYcNQw-e4n-431" value="" style="rounded=0;whiteSpace=wrap;html=1;strokeWidth=1;fillColor=none;" parent="1" vertex="1">
          <mxGeometry x="15" y="2540" width="140" height="140" as="geometry"/>
        </mxCell>
        <mxCell id="M-8WFeIw9KGYcNQw-e4n-432" value="B" style="ellipse;whiteSpace=wrap;html=1;aspect=fixed;fillColor=#dae8fc;strokeColor=#6c8ebf;" parent="1" vertex="1">
          <mxGeometry x="81.25" y="2590" width="20" height="20" as="geometry"/>
        </mxCell>
        <mxCell id="M-8WFeIw9KGYcNQw-e4n-433" value="A" style="ellipse;whiteSpace=wrap;html=1;aspect=fixed;fillColor=#dae8fc;strokeColor=#6c8ebf;" parent="1" vertex="1">
          <mxGeometry x="125.63" y="2550" width="18.12" height="18.12" as="geometry"/>
        </mxCell>
        <mxCell id="M-8WFeIw9KGYcNQw-e4n-434" value="C" style="ellipse;whiteSpace=wrap;html=1;aspect=fixed;fillColor=#dae8fc;strokeColor=#6c8ebf;" parent="1" vertex="1">
          <mxGeometry x="40" y="2550" width="20" height="20" as="geometry"/>
        </mxCell>
        <mxCell id="M-8WFeIw9KGYcNQw-e4n-435" value="" style="ellipse;whiteSpace=wrap;html=1;aspect=fixed;fillColor=#dae8fc;strokeColor=#6c8ebf;" parent="1" vertex="1">
          <mxGeometry x="118.25" y="2630" width="20" height="20" as="geometry"/>
        </mxCell>
        <mxCell id="M-8WFeIw9KGYcNQw-e4n-436" value="" style="ellipse;whiteSpace=wrap;html=1;aspect=fixed;fillColor=#dae8fc;strokeColor=#6c8ebf;" parent="1" vertex="1">
          <mxGeometry x="26.25" y="2610" width="20" height="20" as="geometry"/>
        </mxCell>
        <mxCell id="M-8WFeIw9KGYcNQw-e4n-437" value="D" style="ellipse;whiteSpace=wrap;html=1;aspect=fixed;fillColor=#dae8fc;strokeColor=#6c8ebf;" parent="1" vertex="1">
          <mxGeometry x="63.129999999999995" y="2650" width="20" height="20" as="geometry"/>
        </mxCell>
        <mxCell id="M-8WFeIw9KGYcNQw-e4n-438" value="" style="endArrow=none;html=1;strokeColor=#000000;strokeWidth=2;exitX=1;exitY=1;exitDx=0;exitDy=0;startArrow=classicThin;startFill=1;entryX=0;entryY=0;entryDx=0;entryDy=0;" parent="1" source="M-8WFeIw9KGYcNQw-e4n-434" target="M-8WFeIw9KGYcNQw-e4n-432" edge="1">
          <mxGeometry width="50" height="50" relative="1" as="geometry">
            <mxPoint x="50.629999999999995" y="2780" as="sourcePoint"/>
            <mxPoint x="120" y="2520" as="targetPoint"/>
          </mxGeometry>
        </mxCell>
        <mxCell id="M-8WFeIw9KGYcNQw-e4n-439" value="" style="endArrow=none;html=1;strokeColor=#000000;strokeWidth=1;entryX=0;entryY=1;entryDx=0;entryDy=0;exitX=0.5;exitY=0;exitDx=0;exitDy=0;" parent="1" source="M-8WFeIw9KGYcNQw-e4n-436" target="M-8WFeIw9KGYcNQw-e4n-434" edge="1">
          <mxGeometry width="50" height="50" relative="1" as="geometry">
            <mxPoint x="-45" y="2630" as="sourcePoint"/>
            <mxPoint x="5" y="2580" as="targetPoint"/>
          </mxGeometry>
        </mxCell>
        <mxCell id="M-8WFeIw9KGYcNQw-e4n-440" value="" style="endArrow=none;html=1;strokeColor=#000000;strokeWidth=1;entryX=1;entryY=1;entryDx=0;entryDy=0;exitX=0;exitY=0;exitDx=0;exitDy=0;" parent="1" source="M-8WFeIw9KGYcNQw-e4n-437" target="M-8WFeIw9KGYcNQw-e4n-436" edge="1">
          <mxGeometry width="50" height="50" relative="1" as="geometry">
            <mxPoint x="26.25" y="2830" as="sourcePoint"/>
            <mxPoint x="76.25" y="2780" as="targetPoint"/>
          </mxGeometry>
        </mxCell>
        <mxCell id="M-8WFeIw9KGYcNQw-e4n-441" value="" style="endArrow=none;html=1;strokeColor=#000000;strokeWidth=1;exitX=1;exitY=0.5;exitDx=0;exitDy=0;entryX=0;entryY=1;entryDx=0;entryDy=0;" parent="1" source="M-8WFeIw9KGYcNQw-e4n-437" target="M-8WFeIw9KGYcNQw-e4n-435" edge="1">
          <mxGeometry width="50" height="50" relative="1" as="geometry">
            <mxPoint x="83.13" y="2770" as="sourcePoint"/>
            <mxPoint x="133.13" y="2720" as="targetPoint"/>
          </mxGeometry>
        </mxCell>
        <mxCell id="M-8WFeIw9KGYcNQw-e4n-442" value="" style="endArrow=none;html=1;strokeColor=#000000;strokeWidth=2;entryX=0.5;entryY=1;entryDx=0;entryDy=0;exitX=0.5;exitY=0;exitDx=0;exitDy=0;startArrow=classicThin;startFill=1;" parent="1" source="M-8WFeIw9KGYcNQw-e4n-437" target="M-8WFeIw9KGYcNQw-e4n-432" edge="1">
          <mxGeometry width="50" height="50" relative="1" as="geometry">
            <mxPoint x="72.5" y="2750" as="sourcePoint"/>
            <mxPoint x="122.5" y="2700" as="targetPoint"/>
          </mxGeometry>
        </mxCell>
        <mxCell id="M-8WFeIw9KGYcNQw-e4n-443" value="" style="endArrow=none;html=1;strokeColor=#000000;strokeWidth=2;entryX=0;entryY=0.5;entryDx=0;entryDy=0;exitX=1;exitY=0;exitDx=0;exitDy=0;startArrow=classicThin;startFill=1;" parent="1" source="M-8WFeIw9KGYcNQw-e4n-436" target="M-8WFeIw9KGYcNQw-e4n-432" edge="1">
          <mxGeometry width="50" height="50" relative="1" as="geometry">
            <mxPoint x="2.5" y="2740" as="sourcePoint"/>
            <mxPoint x="52.5" y="2690" as="targetPoint"/>
          </mxGeometry>
        </mxCell>
        <mxCell id="M-8WFeIw9KGYcNQw-e4n-444" value="" style="endArrow=none;html=1;strokeColor=#000000;strokeWidth=1;entryX=0;entryY=1;entryDx=0;entryDy=0;exitX=1;exitY=0;exitDx=0;exitDy=0;" parent="1" source="M-8WFeIw9KGYcNQw-e4n-432" target="M-8WFeIw9KGYcNQw-e4n-433" edge="1">
          <mxGeometry width="50" height="50" relative="1" as="geometry">
            <mxPoint x="163" y="2700" as="sourcePoint"/>
            <mxPoint x="213" y="2650" as="targetPoint"/>
          </mxGeometry>
        </mxCell>
        <mxCell id="M-8WFeIw9KGYcNQw-e4n-445" value="" style="endArrow=none;html=1;strokeColor=#000000;strokeWidth=2;entryX=1;entryY=1;entryDx=0;entryDy=0;exitX=0;exitY=0;exitDx=0;exitDy=0;startArrow=classicThin;startFill=1;" parent="1" source="M-8WFeIw9KGYcNQw-e4n-435" target="M-8WFeIw9KGYcNQw-e4n-432" edge="1">
          <mxGeometry width="50" height="50" relative="1" as="geometry">
            <mxPoint x="123" y="2740" as="sourcePoint"/>
            <mxPoint x="173" y="2690" as="targetPoint"/>
          </mxGeometry>
        </mxCell>
        <mxCell id="M-8WFeIw9KGYcNQw-e4n-446" value="&lt;b&gt;ADV&lt;/b&gt;" style="text;html=1;strokeColor=none;fillColor=none;align=center;verticalAlign=middle;whiteSpace=wrap;rounded=0;rotation=45;" parent="1" vertex="1">
          <mxGeometry x="98.25" y="2600" width="40" height="20" as="geometry"/>
        </mxCell>
        <mxCell id="M-8WFeIw9KGYcNQw-e4n-447" value="&lt;b&gt;ADV&lt;/b&gt;" style="text;html=1;strokeColor=none;fillColor=none;align=center;verticalAlign=middle;whiteSpace=wrap;rounded=0;rotation=-65;" parent="1" vertex="1">
          <mxGeometry x="56.629999999999995" y="2613" width="40" height="20" as="geometry"/>
        </mxCell>
        <mxCell id="M-8WFeIw9KGYcNQw-e4n-448" value="&lt;b&gt;ADV&lt;/b&gt;" style="text;html=1;strokeColor=none;fillColor=none;align=center;verticalAlign=middle;whiteSpace=wrap;rounded=0;rotation=-15;" parent="1" vertex="1">
          <mxGeometry x="40" y="2587" width="40" height="20" as="geometry"/>
        </mxCell>
        <mxCell id="M-8WFeIw9KGYcNQw-e4n-449" value="&lt;b&gt;ADV&lt;/b&gt;" style="text;html=1;strokeColor=none;fillColor=none;align=center;verticalAlign=middle;whiteSpace=wrap;rounded=0;rotation=45;" parent="1" vertex="1">
          <mxGeometry x="60.5" y="2560" width="40" height="20" as="geometry"/>
        </mxCell>
        <mxCell id="M-8WFeIw9KGYcNQw-e4n-450" value="B" style="ellipse;whiteSpace=wrap;html=1;aspect=fixed;fillColor=#dae8fc;strokeColor=#6c8ebf;" parent="1" vertex="1">
          <mxGeometry x="396.75" y="2400" width="20" height="20" as="geometry"/>
        </mxCell>
        <mxCell id="M-8WFeIw9KGYcNQw-e4n-451" value="A" style="ellipse;whiteSpace=wrap;html=1;aspect=fixed;fillColor=#dae8fc;strokeColor=#6c8ebf;" parent="1" vertex="1">
          <mxGeometry x="441.13" y="2360" width="18.12" height="18.12" as="geometry"/>
        </mxCell>
        <mxCell id="M-8WFeIw9KGYcNQw-e4n-452" value="C" style="ellipse;whiteSpace=wrap;html=1;aspect=fixed;fillColor=#dae8fc;strokeColor=#6c8ebf;" parent="1" vertex="1">
          <mxGeometry x="355.5" y="2360" width="20" height="20" as="geometry"/>
        </mxCell>
        <mxCell id="M-8WFeIw9KGYcNQw-e4n-453" value="" style="ellipse;whiteSpace=wrap;html=1;aspect=fixed;fillColor=#dae8fc;strokeColor=#6c8ebf;" parent="1" vertex="1">
          <mxGeometry x="433.75" y="2440" width="20" height="20" as="geometry"/>
        </mxCell>
        <mxCell id="M-8WFeIw9KGYcNQw-e4n-454" value="" style="ellipse;whiteSpace=wrap;html=1;aspect=fixed;fillColor=#dae8fc;strokeColor=#6c8ebf;" parent="1" vertex="1">
          <mxGeometry x="341.75" y="2420" width="20" height="20" as="geometry"/>
        </mxCell>
        <mxCell id="M-8WFeIw9KGYcNQw-e4n-455" value="D" style="ellipse;whiteSpace=wrap;html=1;aspect=fixed;fillColor=#dae8fc;strokeColor=#6c8ebf;" parent="1" vertex="1">
          <mxGeometry x="378.63" y="2460" width="20" height="20" as="geometry"/>
        </mxCell>
        <mxCell id="M-8WFeIw9KGYcNQw-e4n-456" value="" style="endArrow=none;html=1;strokeColor=#000000;strokeWidth=1;entryX=1;entryY=1;entryDx=0;entryDy=0;exitX=0;exitY=0;exitDx=0;exitDy=0;" parent="1" source="M-8WFeIw9KGYcNQw-e4n-450" target="M-8WFeIw9KGYcNQw-e4n-452" edge="1">
          <mxGeometry width="50" height="50" relative="1" as="geometry">
            <mxPoint x="366.13" y="2590" as="sourcePoint"/>
            <mxPoint x="416.13" y="2540" as="targetPoint"/>
          </mxGeometry>
        </mxCell>
        <mxCell id="M-8WFeIw9KGYcNQw-e4n-457" value="" style="endArrow=none;html=1;strokeColor=#000000;strokeWidth=1;entryX=0;entryY=1;entryDx=0;entryDy=0;exitX=0.5;exitY=0;exitDx=0;exitDy=0;" parent="1" source="M-8WFeIw9KGYcNQw-e4n-454" target="M-8WFeIw9KGYcNQw-e4n-452" edge="1">
          <mxGeometry width="50" height="50" relative="1" as="geometry">
            <mxPoint x="270.5" y="2440" as="sourcePoint"/>
            <mxPoint x="320.5" y="2390" as="targetPoint"/>
          </mxGeometry>
        </mxCell>
        <mxCell id="M-8WFeIw9KGYcNQw-e4n-458" value="" style="endArrow=none;html=1;strokeColor=#000000;strokeWidth=1;entryX=1;entryY=1;entryDx=0;entryDy=0;exitX=0;exitY=0;exitDx=0;exitDy=0;" parent="1" source="M-8WFeIw9KGYcNQw-e4n-455" target="M-8WFeIw9KGYcNQw-e4n-454" edge="1">
          <mxGeometry width="50" height="50" relative="1" as="geometry">
            <mxPoint x="341.75" y="2640" as="sourcePoint"/>
            <mxPoint x="391.75" y="2590" as="targetPoint"/>
          </mxGeometry>
        </mxCell>
        <mxCell id="M-8WFeIw9KGYcNQw-e4n-459" value="" style="endArrow=none;html=1;strokeColor=#000000;strokeWidth=1;exitX=1;exitY=0.5;exitDx=0;exitDy=0;entryX=0;entryY=1;entryDx=0;entryDy=0;" parent="1" source="M-8WFeIw9KGYcNQw-e4n-455" target="M-8WFeIw9KGYcNQw-e4n-453" edge="1">
          <mxGeometry width="50" height="50" relative="1" as="geometry">
            <mxPoint x="398.63" y="2580" as="sourcePoint"/>
            <mxPoint x="448.63" y="2530" as="targetPoint"/>
          </mxGeometry>
        </mxCell>
        <mxCell id="M-8WFeIw9KGYcNQw-e4n-460" value="" style="endArrow=none;html=1;strokeColor=#000000;strokeWidth=1;entryX=0.5;entryY=1;entryDx=0;entryDy=0;exitX=0.5;exitY=0;exitDx=0;exitDy=0;" parent="1" source="M-8WFeIw9KGYcNQw-e4n-455" target="M-8WFeIw9KGYcNQw-e4n-450" edge="1">
          <mxGeometry width="50" height="50" relative="1" as="geometry">
            <mxPoint x="388" y="2560" as="sourcePoint"/>
            <mxPoint x="438" y="2510" as="targetPoint"/>
          </mxGeometry>
        </mxCell>
        <mxCell id="M-8WFeIw9KGYcNQw-e4n-461" value="" style="endArrow=none;html=1;strokeColor=#000000;strokeWidth=1;entryX=0;entryY=0.5;entryDx=0;entryDy=0;exitX=1;exitY=0;exitDx=0;exitDy=0;" parent="1" source="M-8WFeIw9KGYcNQw-e4n-454" target="M-8WFeIw9KGYcNQw-e4n-450" edge="1">
          <mxGeometry width="50" height="50" relative="1" as="geometry">
            <mxPoint x="318" y="2550" as="sourcePoint"/>
            <mxPoint x="368" y="2500" as="targetPoint"/>
          </mxGeometry>
        </mxCell>
        <mxCell id="M-8WFeIw9KGYcNQw-e4n-462" value="" style="endArrow=none;html=1;strokeColor=#000000;strokeWidth=2;entryX=0;entryY=1;entryDx=0;entryDy=0;exitX=1;exitY=0;exitDx=0;exitDy=0;startArrow=classicThin;startFill=1;" parent="1" source="M-8WFeIw9KGYcNQw-e4n-450" target="M-8WFeIw9KGYcNQw-e4n-451" edge="1">
          <mxGeometry width="50" height="50" relative="1" as="geometry">
            <mxPoint x="478.5" y="2510" as="sourcePoint"/>
            <mxPoint x="528.5" y="2460" as="targetPoint"/>
          </mxGeometry>
        </mxCell>
        <mxCell id="M-8WFeIw9KGYcNQw-e4n-463" value="" style="endArrow=none;html=1;strokeColor=#000000;strokeWidth=1;entryX=1;entryY=1;entryDx=0;entryDy=0;exitX=0;exitY=0;exitDx=0;exitDy=0;" parent="1" source="M-8WFeIw9KGYcNQw-e4n-453" target="M-8WFeIw9KGYcNQw-e4n-450" edge="1">
          <mxGeometry width="50" height="50" relative="1" as="geometry">
            <mxPoint x="438.5" y="2550" as="sourcePoint"/>
            <mxPoint x="488.5" y="2500" as="targetPoint"/>
          </mxGeometry>
        </mxCell>
        <mxCell id="M-8WFeIw9KGYcNQw-e4n-465" value="DATA" style="text;html=1;strokeColor=none;fillColor=none;align=center;verticalAlign=middle;whiteSpace=wrap;rounded=0;rotation=-45;fontStyle=1" parent="1" vertex="1">
          <mxGeometry x="416" y="2383" width="40" height="20" as="geometry"/>
        </mxCell>
        <mxCell id="M-8WFeIw9KGYcNQw-e4n-466" value="&lt;b&gt;REQ&lt;/b&gt;" style="text;html=1;strokeColor=none;fillColor=none;align=center;verticalAlign=middle;whiteSpace=wrap;rounded=0;rotation=-60;" parent="1" vertex="1">
          <mxGeometry x="209.75" y="2622" width="40" height="20" as="geometry"/>
        </mxCell>
        <mxCell id="M-8WFeIw9KGYcNQw-e4n-467" value="&lt;b&gt;REQ&lt;/b&gt;" style="text;html=1;strokeColor=none;fillColor=none;align=center;verticalAlign=middle;whiteSpace=wrap;rounded=0;rotation=45;" parent="1" vertex="1">
          <mxGeometry x="218" y="2560" width="40" height="20" as="geometry"/>
        </mxCell>
        <mxCell id="M-8WFeIw9KGYcNQw-e4n-469" value="DATA" style="text;html=1;strokeColor=none;fillColor=none;align=center;verticalAlign=middle;whiteSpace=wrap;rounded=0;rotation=-60;fontStyle=1" parent="1" vertex="1">
          <mxGeometry x="370" y="2613" width="40" height="20" as="geometry"/>
        </mxCell>
        <mxCell id="M-8WFeIw9KGYcNQw-e4n-473" value="DATA" style="text;html=1;strokeColor=none;fillColor=none;align=center;verticalAlign=middle;whiteSpace=wrap;rounded=0;rotation=45;fontStyle=1" parent="1" vertex="1">
          <mxGeometry x="375" y="2563" width="40" height="20" as="geometry"/>
        </mxCell>
        <mxCell id="M-8WFeIw9KGYcNQw-e4n-474" value="&lt;font style=&quot;font-size: 14px&quot;&gt;A advertises to B&lt;/font&gt;" style="text;html=1;strokeColor=none;fillColor=none;align=center;verticalAlign=middle;whiteSpace=wrap;rounded=0;" parent="1" vertex="1">
          <mxGeometry x="27.5" y="2490" width="115" height="20" as="geometry"/>
        </mxCell>
        <mxCell id="M-8WFeIw9KGYcNQw-e4n-475" value="&lt;font style=&quot;font-size: 14px&quot;&gt;B requests from A&lt;/font&gt;" style="text;html=1;strokeColor=none;fillColor=none;align=center;verticalAlign=middle;whiteSpace=wrap;rounded=0;" parent="1" vertex="1">
          <mxGeometry x="177.5" y="2490" width="130" height="20" as="geometry"/>
        </mxCell>
        <mxCell id="M-8WFeIw9KGYcNQw-e4n-476" value="&lt;font style=&quot;font-size: 14px&quot;&gt;A sends data to B&lt;br&gt;&lt;/font&gt;" style="text;html=1;strokeColor=none;fillColor=none;align=center;verticalAlign=middle;whiteSpace=wrap;rounded=0;" parent="1" vertex="1">
          <mxGeometry x="335.5" y="2490" width="130" height="20" as="geometry"/>
        </mxCell>
        <mxCell id="M-8WFeIw9KGYcNQw-e4n-477" value="&lt;font style=&quot;font-size: 14px&quot;&gt;B advertises to neighbors&lt;br&gt;&lt;/font&gt;" style="text;html=1;strokeColor=none;fillColor=none;align=center;verticalAlign=middle;whiteSpace=wrap;rounded=0;" parent="1" vertex="1">
          <mxGeometry x="45" y="2690" width="97.5" height="20" as="geometry"/>
        </mxCell>
        <mxCell id="M-8WFeIw9KGYcNQw-e4n-478" value="&lt;font style=&quot;font-size: 14px&quot;&gt;C &amp;amp; D request from B&lt;/font&gt;" style="text;html=1;strokeColor=none;fillColor=none;align=center;verticalAlign=middle;whiteSpace=wrap;rounded=0;" parent="1" vertex="1">
          <mxGeometry x="164.88" y="2682" width="155" height="20" as="geometry"/>
        </mxCell>
        <mxCell id="M-8WFeIw9KGYcNQw-e4n-479" value="&lt;font style=&quot;font-size: 14px&quot;&gt;B sends data to C &amp;amp; D&lt;br&gt;&lt;/font&gt;" style="text;html=1;strokeColor=none;fillColor=none;align=center;verticalAlign=middle;whiteSpace=wrap;rounded=0;" parent="1" vertex="1">
          <mxGeometry x="326.75" y="2682" width="143.75" height="20" as="geometry"/>
        </mxCell>
        <mxCell id="M-8WFeIw9KGYcNQw-e4n-480" value="&lt;font style=&quot;font-size: 17px&quot;&gt;1&lt;/font&gt;" style="text;html=1;strokeColor=none;fillColor=none;align=center;verticalAlign=middle;whiteSpace=wrap;rounded=0;fontStyle=1" parent="1" vertex="1">
          <mxGeometry x="15" y="2470" width="25" height="20" as="geometry"/>
        </mxCell>
        <mxCell id="M-8WFeIw9KGYcNQw-e4n-483" value="&lt;font style=&quot;font-size: 16px&quot;&gt;&lt;b&gt;2&lt;/b&gt;&lt;/font&gt;" style="text;html=1;strokeColor=none;fillColor=none;align=center;verticalAlign=middle;whiteSpace=wrap;rounded=0;fontStyle=1" parent="1" vertex="1">
          <mxGeometry x="173.5" y="2470" width="25" height="20" as="geometry"/>
        </mxCell>
        <mxCell id="M-8WFeIw9KGYcNQw-e4n-484" value="&lt;font style=&quot;font-size: 17px&quot;&gt;3&lt;/font&gt;" style="text;html=1;strokeColor=none;fillColor=none;align=center;verticalAlign=middle;whiteSpace=wrap;rounded=0;fontStyle=1" parent="1" vertex="1">
          <mxGeometry x="330" y="2470" width="25" height="20" as="geometry"/>
        </mxCell>
        <mxCell id="M-8WFeIw9KGYcNQw-e4n-485" value="&lt;font style=&quot;font-size: 17px&quot;&gt;4&lt;/font&gt;" style="text;html=1;strokeColor=none;fillColor=none;align=center;verticalAlign=middle;whiteSpace=wrap;rounded=0;fontStyle=1" parent="1" vertex="1">
          <mxGeometry x="15" y="2660" width="25" height="20" as="geometry"/>
        </mxCell>
        <mxCell id="M-8WFeIw9KGYcNQw-e4n-486" value="&lt;font style=&quot;font-size: 17px&quot;&gt;5&lt;/font&gt;" style="text;html=1;strokeColor=none;fillColor=none;align=center;verticalAlign=middle;whiteSpace=wrap;rounded=0;fontStyle=1" parent="1" vertex="1">
          <mxGeometry x="173" y="2660" width="25" height="20" as="geometry"/>
        </mxCell>
        <mxCell id="M-8WFeIw9KGYcNQw-e4n-487" value="&lt;font style=&quot;font-size: 17px&quot;&gt;6&lt;/font&gt;" style="text;html=1;strokeColor=none;fillColor=none;align=center;verticalAlign=middle;whiteSpace=wrap;rounded=0;fontStyle=1" parent="1" vertex="1">
          <mxGeometry x="330" y="2660" width="25" height="20" as="geometry"/>
        </mxCell>
        <mxCell id="M-8WFeIw9KGYcNQw-e4n-488" value="" style="ellipse;whiteSpace=wrap;html=1;aspect=fixed;fillColor=#dae8fc;strokeColor=#6c8ebf;" parent="1" vertex="1">
          <mxGeometry x="90" y="2830" width="10" height="10" as="geometry"/>
        </mxCell>
        <mxCell id="M-8WFeIw9KGYcNQw-e4n-492" value="" style="ellipse;whiteSpace=wrap;html=1;aspect=fixed;fillColor=#dae8fc;strokeColor=#6c8ebf;" parent="1" vertex="1">
          <mxGeometry x="67.5" y="2860" width="10" height="10" as="geometry"/>
        </mxCell>
        <mxCell id="M-8WFeIw9KGYcNQw-e4n-493" value="" style="ellipse;whiteSpace=wrap;html=1;aspect=fixed;fillColor=#dae8fc;strokeColor=#6c8ebf;" parent="1" vertex="1">
          <mxGeometry x="110" y="2850" width="10" height="10" as="geometry"/>
        </mxCell>
        <mxCell id="M-8WFeIw9KGYcNQw-e4n-494" value="" style="ellipse;whiteSpace=wrap;html=1;aspect=fixed;fillColor=#dae8fc;strokeColor=#6c8ebf;" parent="1" vertex="1">
          <mxGeometry x="96.63" y="2870" width="10" height="10" as="geometry"/>
        </mxCell>
        <mxCell id="M-8WFeIw9KGYcNQw-e4n-495" value="" style="ellipse;whiteSpace=wrap;html=1;aspect=fixed;fillColor=#dae8fc;strokeColor=#6c8ebf;" parent="1" vertex="1">
          <mxGeometry x="68.13" y="2835" width="10" height="10" as="geometry"/>
        </mxCell>
        <mxCell id="M-8WFeIw9KGYcNQw-e4n-496" value="" style="ellipse;whiteSpace=wrap;html=1;aspect=fixed;fillColor=#dae8fc;strokeColor=#6c8ebf;" parent="1" vertex="1">
          <mxGeometry x="117.5" y="2825" width="10" height="10" as="geometry"/>
        </mxCell>
        <mxCell id="M-8WFeIw9KGYcNQw-e4n-497" value="" style="ellipse;whiteSpace=wrap;html=1;aspect=fixed;fillColor=#dae8fc;strokeColor=#6c8ebf;" parent="1" vertex="1">
          <mxGeometry x="78.13" y="2810" width="10" height="10" as="geometry"/>
        </mxCell>
        <mxCell id="M-8WFeIw9KGYcNQw-e4n-498" value="" style="ellipse;whiteSpace=wrap;html=1;aspect=fixed;fillColor=#dae8fc;strokeColor=#6c8ebf;" parent="1" vertex="1">
          <mxGeometry x="200" y="2900" width="10" height="10" as="geometry"/>
        </mxCell>
        <mxCell id="M-8WFeIw9KGYcNQw-e4n-499" value="" style="ellipse;whiteSpace=wrap;html=1;aspect=fixed;fillColor=#dae8fc;strokeColor=#6c8ebf;" parent="1" vertex="1">
          <mxGeometry x="223.75" y="2880" width="10" height="10" as="geometry"/>
        </mxCell>
        <mxCell id="M-8WFeIw9KGYcNQw-e4n-500" value="" style="ellipse;whiteSpace=wrap;html=1;aspect=fixed;fillColor=#dae8fc;strokeColor=#6c8ebf;" parent="1" vertex="1">
          <mxGeometry x="163.5" y="2890" width="10" height="10" as="geometry"/>
        </mxCell>
        <mxCell id="M-8WFeIw9KGYcNQw-e4n-501" value="" style="ellipse;whiteSpace=wrap;html=1;aspect=fixed;fillColor=#dae8fc;strokeColor=#6c8ebf;" parent="1" vertex="1">
          <mxGeometry x="185" y="2880" width="10" height="10" as="geometry"/>
        </mxCell>
        <mxCell id="M-8WFeIw9KGYcNQw-e4n-502" value="" style="ellipse;whiteSpace=wrap;html=1;aspect=fixed;fillColor=#dae8fc;strokeColor=#6c8ebf;" parent="1" vertex="1">
          <mxGeometry x="211.13" y="2860" width="10" height="10" as="geometry"/>
        </mxCell>
        <mxCell id="M-8WFeIw9KGYcNQw-e4n-503" value="" style="ellipse;whiteSpace=wrap;html=1;aspect=fixed;fillColor=#dae8fc;strokeColor=#6c8ebf;" parent="1" vertex="1">
          <mxGeometry x="167.5" y="2860" width="10" height="10" as="geometry"/>
        </mxCell>
        <mxCell id="M-8WFeIw9KGYcNQw-e4n-504" value="" style="ellipse;whiteSpace=wrap;html=1;aspect=fixed;fillColor=#dae8fc;strokeColor=#6c8ebf;" parent="1" vertex="1">
          <mxGeometry x="272" y="2835" width="10" height="10" as="geometry"/>
        </mxCell>
        <mxCell id="M-8WFeIw9KGYcNQw-e4n-505" value="" style="ellipse;whiteSpace=wrap;html=1;aspect=fixed;fillColor=#dae8fc;strokeColor=#6c8ebf;" parent="1" vertex="1">
          <mxGeometry x="281.25" y="2860" width="10" height="10" as="geometry"/>
        </mxCell>
        <mxCell id="M-8WFeIw9KGYcNQw-e4n-506" value="" style="ellipse;whiteSpace=wrap;html=1;aspect=fixed;fillColor=#dae8fc;strokeColor=#6c8ebf;" parent="1" vertex="1">
          <mxGeometry x="293" y="2840" width="10" height="10" as="geometry"/>
        </mxCell>
        <mxCell id="M-8WFeIw9KGYcNQw-e4n-507" value="" style="ellipse;whiteSpace=wrap;html=1;aspect=fixed;fillColor=#dae8fc;strokeColor=#6c8ebf;" parent="1" vertex="1">
          <mxGeometry x="293" y="2810" width="10" height="10" as="geometry"/>
        </mxCell>
        <mxCell id="M-8WFeIw9KGYcNQw-e4n-508" value="" style="ellipse;whiteSpace=wrap;html=1;aspect=fixed;fillColor=#dae8fc;strokeColor=#6c8ebf;" parent="1" vertex="1">
          <mxGeometry x="313.5" y="2825" width="10" height="10" as="geometry"/>
        </mxCell>
        <mxCell id="M-8WFeIw9KGYcNQw-e4n-509" value="" style="ellipse;whiteSpace=wrap;html=1;aspect=fixed;fillColor=#dae8fc;strokeColor=#6c8ebf;" parent="1" vertex="1">
          <mxGeometry x="306.25" y="2850" width="10" height="10" as="geometry"/>
        </mxCell>
        <mxCell id="M-8WFeIw9KGYcNQw-e4n-510" value="" style="ellipse;whiteSpace=wrap;html=1;aspect=fixed;fillColor=#dae8fc;strokeColor=#6c8ebf;" parent="1" vertex="1">
          <mxGeometry x="300" y="2870" width="10" height="10" as="geometry"/>
        </mxCell>
        <mxCell id="M-8WFeIw9KGYcNQw-e4n-511" value="" style="ellipse;whiteSpace=wrap;html=1;aspect=fixed;fillColor=#dae8fc;strokeColor=#6c8ebf;" parent="1" vertex="1">
          <mxGeometry x="305" y="2795" width="10" height="10" as="geometry"/>
        </mxCell>
        <mxCell id="M-8WFeIw9KGYcNQw-e4n-512" value="" style="rounded=0;whiteSpace=wrap;html=1;fillColor=#f8cecc;strokeColor=#b85450;" parent="1" vertex="1">
          <mxGeometry x="185" y="2790" width="20" height="20" as="geometry"/>
        </mxCell>
        <mxCell id="M-8WFeIw9KGYcNQw-e4n-513" value="" style="endArrow=none;html=1;strokeColor=#000000;strokeWidth=1;entryX=1;entryY=0.5;entryDx=0;entryDy=0;exitX=0;exitY=1;exitDx=0;exitDy=0;" parent="1" source="M-8WFeIw9KGYcNQw-e4n-488" target="M-8WFeIw9KGYcNQw-e4n-495" edge="1">
          <mxGeometry width="50" height="50" relative="1" as="geometry">
            <mxPoint x="15" y="2990" as="sourcePoint"/>
            <mxPoint x="65" y="2940" as="targetPoint"/>
          </mxGeometry>
        </mxCell>
        <mxCell id="M-8WFeIw9KGYcNQw-e4n-514" value="" style="endArrow=none;html=1;strokeColor=#000000;strokeWidth=1;exitX=1;exitY=0;exitDx=0;exitDy=0;entryX=0;entryY=1;entryDx=0;entryDy=0;" parent="1" source="M-8WFeIw9KGYcNQw-e4n-492" target="M-8WFeIw9KGYcNQw-e4n-488" edge="1">
          <mxGeometry width="50" height="50" relative="1" as="geometry">
            <mxPoint x="15" y="3060" as="sourcePoint"/>
            <mxPoint x="65" y="3010" as="targetPoint"/>
          </mxGeometry>
        </mxCell>
        <mxCell id="M-8WFeIw9KGYcNQw-e4n-515" value="" style="endArrow=none;html=1;strokeColor=#000000;strokeWidth=1;exitX=0.5;exitY=0;exitDx=0;exitDy=0;entryX=0.5;entryY=1;entryDx=0;entryDy=0;" parent="1" source="M-8WFeIw9KGYcNQw-e4n-494" target="M-8WFeIw9KGYcNQw-e4n-488" edge="1">
          <mxGeometry width="50" height="50" relative="1" as="geometry">
            <mxPoint x="82.5" y="2990" as="sourcePoint"/>
            <mxPoint x="132.5" y="2940" as="targetPoint"/>
          </mxGeometry>
        </mxCell>
        <mxCell id="M-8WFeIw9KGYcNQw-e4n-516" value="" style="endArrow=none;html=1;strokeColor=#000000;strokeWidth=1;exitX=0;exitY=0;exitDx=0;exitDy=0;entryX=1;entryY=0.5;entryDx=0;entryDy=0;" parent="1" source="M-8WFeIw9KGYcNQw-e4n-493" target="M-8WFeIw9KGYcNQw-e4n-488" edge="1">
          <mxGeometry width="50" height="50" relative="1" as="geometry">
            <mxPoint x="63.129999999999995" y="3000" as="sourcePoint"/>
            <mxPoint x="113.13" y="2950" as="targetPoint"/>
          </mxGeometry>
        </mxCell>
        <mxCell id="M-8WFeIw9KGYcNQw-e4n-517" value="" style="endArrow=none;html=1;strokeColor=#000000;strokeWidth=1;entryX=0;entryY=0;entryDx=0;entryDy=0;exitX=1;exitY=0.5;exitDx=0;exitDy=0;" parent="1" source="M-8WFeIw9KGYcNQw-e4n-488" target="M-8WFeIw9KGYcNQw-e4n-496" edge="1">
          <mxGeometry width="50" height="50" relative="1" as="geometry">
            <mxPoint x="65" y="3030" as="sourcePoint"/>
            <mxPoint x="115" y="2980" as="targetPoint"/>
          </mxGeometry>
        </mxCell>
        <mxCell id="M-8WFeIw9KGYcNQw-e4n-518" value="" style="endArrow=none;html=1;strokeColor=#000000;strokeWidth=1;exitX=0;exitY=0;exitDx=0;exitDy=0;entryX=1;entryY=1;entryDx=0;entryDy=0;" parent="1" source="M-8WFeIw9KGYcNQw-e4n-488" target="M-8WFeIw9KGYcNQw-e4n-497" edge="1">
          <mxGeometry width="50" height="50" relative="1" as="geometry">
            <mxPoint x="86.03553390593265" y="2871.4644660940676" as="sourcePoint"/>
            <mxPoint x="101.46446609406735" y="2848.5355339059324" as="targetPoint"/>
          </mxGeometry>
        </mxCell>
        <mxCell id="M-8WFeIw9KGYcNQw-e4n-519" value="" style="endArrow=none;html=1;strokeColor=#000000;strokeWidth=1;exitX=0.5;exitY=0;exitDx=0;exitDy=0;entryX=0;entryY=0.5;entryDx=0;entryDy=0;" parent="1" source="M-8WFeIw9KGYcNQw-e4n-488" target="M-8WFeIw9KGYcNQw-e4n-512" edge="1">
          <mxGeometry width="50" height="50" relative="1" as="geometry">
            <mxPoint x="96.03553390593265" y="2881.4644660940676" as="sourcePoint"/>
            <mxPoint x="111.46446609406735" y="2858.5355339059324" as="targetPoint"/>
          </mxGeometry>
        </mxCell>
        <mxCell id="M-8WFeIw9KGYcNQw-e4n-520" value="" style="endArrow=none;html=1;strokeColor=#000000;strokeWidth=1;exitX=0;exitY=0.5;exitDx=0;exitDy=0;entryX=1;entryY=0;entryDx=0;entryDy=0;" parent="1" source="M-8WFeIw9KGYcNQw-e4n-501" target="M-8WFeIw9KGYcNQw-e4n-500" edge="1">
          <mxGeometry width="50" height="50" relative="1" as="geometry">
            <mxPoint x="106.03553390593265" y="2891.4644660940676" as="sourcePoint"/>
            <mxPoint x="121.46446609406735" y="2868.5355339059324" as="targetPoint"/>
          </mxGeometry>
        </mxCell>
        <mxCell id="M-8WFeIw9KGYcNQw-e4n-521" value="" style="endArrow=none;html=1;strokeColor=#000000;strokeWidth=1;exitX=1;exitY=1;exitDx=0;exitDy=0;entryX=0.5;entryY=0;entryDx=0;entryDy=0;" parent="1" source="M-8WFeIw9KGYcNQw-e4n-501" target="M-8WFeIw9KGYcNQw-e4n-498" edge="1">
          <mxGeometry width="50" height="50" relative="1" as="geometry">
            <mxPoint x="116.03553390593265" y="2901.4644660940676" as="sourcePoint"/>
            <mxPoint x="131.46446609406735" y="2878.5355339059324" as="targetPoint"/>
          </mxGeometry>
        </mxCell>
        <mxCell id="M-8WFeIw9KGYcNQw-e4n-522" value="" style="endArrow=none;html=1;strokeColor=#000000;strokeWidth=1;exitX=1;exitY=0.5;exitDx=0;exitDy=0;entryX=0;entryY=0.5;entryDx=0;entryDy=0;" parent="1" source="M-8WFeIw9KGYcNQw-e4n-501" target="M-8WFeIw9KGYcNQw-e4n-499" edge="1">
          <mxGeometry width="50" height="50" relative="1" as="geometry">
            <mxPoint x="126.03553390593265" y="2911.4644660940676" as="sourcePoint"/>
            <mxPoint x="141.46446609406735" y="2888.5355339059324" as="targetPoint"/>
          </mxGeometry>
        </mxCell>
        <mxCell id="M-8WFeIw9KGYcNQw-e4n-523" value="" style="endArrow=none;html=1;strokeColor=#000000;strokeWidth=1;exitX=0.5;exitY=1;exitDx=0;exitDy=0;entryX=0;entryY=0;entryDx=0;entryDy=0;" parent="1" source="M-8WFeIw9KGYcNQw-e4n-503" target="M-8WFeIw9KGYcNQw-e4n-501" edge="1">
          <mxGeometry width="50" height="50" relative="1" as="geometry">
            <mxPoint x="136.03553390593265" y="2921.4644660940676" as="sourcePoint"/>
            <mxPoint x="151.46446609406735" y="2898.5355339059324" as="targetPoint"/>
          </mxGeometry>
        </mxCell>
        <mxCell id="M-8WFeIw9KGYcNQw-e4n-524" value="" style="endArrow=none;html=1;strokeColor=#000000;strokeWidth=1;entryX=0;entryY=1;entryDx=0;entryDy=0;exitX=1;exitY=0.5;exitDx=0;exitDy=0;" parent="1" source="M-8WFeIw9KGYcNQw-e4n-501" target="M-8WFeIw9KGYcNQw-e4n-502" edge="1">
          <mxGeometry width="50" height="50" relative="1" as="geometry">
            <mxPoint x="295" y="3030" as="sourcePoint"/>
            <mxPoint x="161.46446609406735" y="2908.5355339059324" as="targetPoint"/>
          </mxGeometry>
        </mxCell>
        <mxCell id="M-8WFeIw9KGYcNQw-e4n-525" value="" style="endArrow=none;html=1;strokeColor=#000000;strokeWidth=1;exitX=1;exitY=0;exitDx=0;exitDy=0;entryX=0;entryY=1;entryDx=0;entryDy=0;" parent="1" source="M-8WFeIw9KGYcNQw-e4n-506" target="M-8WFeIw9KGYcNQw-e4n-511" edge="1">
          <mxGeometry width="50" height="50" relative="1" as="geometry">
            <mxPoint x="156.03553390593265" y="2941.4644660940676" as="sourcePoint"/>
            <mxPoint x="171.46446609406735" y="2918.5355339059324" as="targetPoint"/>
          </mxGeometry>
        </mxCell>
        <mxCell id="M-8WFeIw9KGYcNQw-e4n-526" value="" style="endArrow=none;html=1;strokeColor=#000000;strokeWidth=1;entryX=0;entryY=1;entryDx=0;entryDy=0;exitX=1;exitY=0;exitDx=0;exitDy=0;" parent="1" source="M-8WFeIw9KGYcNQw-e4n-506" target="M-8WFeIw9KGYcNQw-e4n-508" edge="1">
          <mxGeometry width="50" height="50" relative="1" as="geometry">
            <mxPoint x="295" y="2840" as="sourcePoint"/>
            <mxPoint x="181.46446609406735" y="2928.5355339059324" as="targetPoint"/>
          </mxGeometry>
        </mxCell>
        <mxCell id="M-8WFeIw9KGYcNQw-e4n-527" value="" style="endArrow=none;html=1;strokeColor=#000000;strokeWidth=1;exitX=0.5;exitY=0;exitDx=0;exitDy=0;entryX=0.5;entryY=1;entryDx=0;entryDy=0;" parent="1" source="M-8WFeIw9KGYcNQw-e4n-505" target="M-8WFeIw9KGYcNQw-e4n-506" edge="1">
          <mxGeometry width="50" height="50" relative="1" as="geometry">
            <mxPoint x="176.03553390593265" y="2961.4644660940676" as="sourcePoint"/>
            <mxPoint x="191.46446609406735" y="2938.5355339059324" as="targetPoint"/>
          </mxGeometry>
        </mxCell>
        <mxCell id="M-8WFeIw9KGYcNQw-e4n-528" value="" style="endArrow=none;html=1;strokeColor=#000000;strokeWidth=1;exitX=0.5;exitY=1;exitDx=0;exitDy=0;entryX=0.5;entryY=0;entryDx=0;entryDy=0;" parent="1" source="M-8WFeIw9KGYcNQw-e4n-506" target="M-8WFeIw9KGYcNQw-e4n-510" edge="1">
          <mxGeometry width="50" height="50" relative="1" as="geometry">
            <mxPoint x="186.03553390593265" y="2971.4644660940676" as="sourcePoint"/>
            <mxPoint x="201.46446609406735" y="2948.5355339059324" as="targetPoint"/>
          </mxGeometry>
        </mxCell>
        <mxCell id="M-8WFeIw9KGYcNQw-e4n-529" value="" style="endArrow=none;html=1;strokeColor=#000000;strokeWidth=1;exitX=1;exitY=1;exitDx=0;exitDy=0;entryX=0;entryY=0;entryDx=0;entryDy=0;" parent="1" source="M-8WFeIw9KGYcNQw-e4n-506" target="M-8WFeIw9KGYcNQw-e4n-509" edge="1">
          <mxGeometry width="50" height="50" relative="1" as="geometry">
            <mxPoint x="196.03553390593265" y="2981.4644660940676" as="sourcePoint"/>
            <mxPoint x="211.46446609406735" y="2958.5355339059324" as="targetPoint"/>
          </mxGeometry>
        </mxCell>
        <mxCell id="M-8WFeIw9KGYcNQw-e4n-530" value="" style="endArrow=none;html=1;strokeColor=#000000;strokeWidth=1;entryX=0.5;entryY=1;entryDx=0;entryDy=0;exitX=0.5;exitY=0;exitDx=0;exitDy=0;" parent="1" source="M-8WFeIw9KGYcNQw-e4n-501" target="M-8WFeIw9KGYcNQw-e4n-512" edge="1">
          <mxGeometry width="50" height="50" relative="1" as="geometry">
            <mxPoint x="435" y="2830" as="sourcePoint"/>
            <mxPoint x="221.46446609406735" y="2968.5355339059324" as="targetPoint"/>
          </mxGeometry>
        </mxCell>
        <mxCell id="M-8WFeIw9KGYcNQw-e4n-533" value="" style="endArrow=none;html=1;strokeColor=#000000;strokeWidth=1;exitX=0.5;exitY=1;exitDx=0;exitDy=0;entryX=1;entryY=0;entryDx=0;entryDy=0;" parent="1" source="M-8WFeIw9KGYcNQw-e4n-507" target="M-8WFeIw9KGYcNQw-e4n-506" edge="1">
          <mxGeometry width="50" height="50" relative="1" as="geometry">
            <mxPoint x="296.25" y="2870" as="sourcePoint"/>
            <mxPoint x="308" y="2860" as="targetPoint"/>
          </mxGeometry>
        </mxCell>
        <mxCell id="M-8WFeIw9KGYcNQw-e4n-534" value="" style="endArrow=none;html=1;strokeColor=#000000;strokeWidth=1;exitX=1;exitY=1;exitDx=0;exitDy=0;entryX=0;entryY=0;entryDx=0;entryDy=0;" parent="1" source="M-8WFeIw9KGYcNQw-e4n-504" target="M-8WFeIw9KGYcNQw-e4n-506" edge="1">
          <mxGeometry width="50" height="50" relative="1" as="geometry">
            <mxPoint x="306.25" y="2880" as="sourcePoint"/>
            <mxPoint x="318" y="2870" as="targetPoint"/>
          </mxGeometry>
        </mxCell>
        <mxCell id="M-8WFeIw9KGYcNQw-e4n-535" value="" style="endArrow=none;html=1;strokeColor=#000000;strokeWidth=1;exitX=1;exitY=0.5;exitDx=0;exitDy=0;entryX=0.5;entryY=0;entryDx=0;entryDy=0;" parent="1" source="M-8WFeIw9KGYcNQw-e4n-512" target="M-8WFeIw9KGYcNQw-e4n-506" edge="1">
          <mxGeometry width="50" height="50" relative="1" as="geometry">
            <mxPoint x="316.25" y="2890" as="sourcePoint"/>
            <mxPoint x="328" y="2880" as="targetPoint"/>
          </mxGeometry>
        </mxCell>
        <mxCell id="M-8WFeIw9KGYcNQw-e4n-540" value="" style="ellipse;whiteSpace=wrap;html=1;strokeWidth=1;fillColor=none;dashed=1;" parent="1" vertex="1">
          <mxGeometry x="58.75" y="2800" width="76.25" height="90" as="geometry"/>
        </mxCell>
        <mxCell id="M-8WFeIw9KGYcNQw-e4n-543" value="" style="ellipse;whiteSpace=wrap;html=1;dashed=1;strokeWidth=1;fillColor=none;" parent="1" vertex="1">
          <mxGeometry x="145" y="2853" width="100" height="60" as="geometry"/>
        </mxCell>
      </root>
    </mxGraphModel>
  </diagram>
</mxfile>
